<mxfile host="app.diagrams.net" modified="2023-01-15T21:22:56.781Z" agent="5.0 (X11; Linux x86_64) AppleWebKit/537.36 (KHTML, like Gecko) Chrome/109.0.0.0 Safari/537.36" etag="AZm70Mr3Ji88QkRarngP" version="20.8.5" type="github">
  <diagram id="PELnM6I8zMOkpGncSnQj" name="Pagina-1">
    <mxGraphModel dx="1433" dy="800" grid="1" gridSize="10" guides="1" tooltips="1" connect="1" arrows="1" fold="1" page="1" pageScale="1" pageWidth="827" pageHeight="1169" math="0" shadow="0">
      <root>
        <mxCell id="0" />
        <mxCell id="1" parent="0" />
        <mxCell id="66mWaM6eEmOpCAhljK_r-392" value="" style="rounded=0;whiteSpace=wrap;html=1;fillColor=none;dashed=1;dashPattern=1 2;" parent="1" vertex="1">
          <mxGeometry x="1604" y="234" width="30" height="260" as="geometry" />
        </mxCell>
        <mxCell id="66mWaM6eEmOpCAhljK_r-442" style="edgeStyle=none;rounded=0;orthogonalLoop=1;jettySize=auto;html=1;exitX=1;exitY=0;exitDx=0;exitDy=0;fontSize=36;" parent="1" source="Lb5HWGm_DYKcfEpjaOFK-197" target="66mWaM6eEmOpCAhljK_r-354" edge="1">
          <mxGeometry relative="1" as="geometry" />
        </mxCell>
        <mxCell id="66mWaM6eEmOpCAhljK_r-446" style="edgeStyle=none;rounded=0;orthogonalLoop=1;jettySize=auto;html=1;exitX=1;exitY=1;exitDx=0;exitDy=0;fontSize=36;" parent="1" source="Lb5HWGm_DYKcfEpjaOFK-197" target="66mWaM6eEmOpCAhljK_r-266" edge="1">
          <mxGeometry relative="1" as="geometry" />
        </mxCell>
        <mxCell id="Lb5HWGm_DYKcfEpjaOFK-197" value="" style="ellipse;whiteSpace=wrap;html=1;aspect=fixed;fillColor=none;" parent="1" vertex="1">
          <mxGeometry x="404" y="580.5" width="675" height="675" as="geometry" />
        </mxCell>
        <mxCell id="Lb5HWGm_DYKcfEpjaOFK-109" value="" style="rounded=0;whiteSpace=wrap;html=1;fillColor=none;dashed=1;dashPattern=1 2;" parent="1" vertex="1">
          <mxGeometry x="833" y="783.5" width="50" height="290" as="geometry" />
        </mxCell>
        <mxCell id="Lb5HWGm_DYKcfEpjaOFK-110" value="" style="rounded=0;whiteSpace=wrap;html=1;fillColor=none;dashed=1;dashPattern=1 2;" parent="1" vertex="1">
          <mxGeometry x="594" y="783.5" width="50" height="290" as="geometry" />
        </mxCell>
        <mxCell id="Lb5HWGm_DYKcfEpjaOFK-111" value="" style="rounded=0;whiteSpace=wrap;html=1;fillColor=none;dashed=1;dashPattern=1 2;" parent="1" vertex="1">
          <mxGeometry x="463" y="745.5" width="560" height="350" as="geometry" />
        </mxCell>
        <mxCell id="Lb5HWGm_DYKcfEpjaOFK-112" value="" style="rounded=0;whiteSpace=wrap;html=1;fillColor=none;dashed=1;dashPattern=1 2;" parent="1" vertex="1">
          <mxGeometry x="583" y="765.5" width="310" height="320" as="geometry" />
        </mxCell>
        <mxCell id="Lb5HWGm_DYKcfEpjaOFK-113" value="" style="rounded=0;whiteSpace=wrap;html=1;fillColor=none;dashed=1;dashPattern=1 2;" parent="1" vertex="1">
          <mxGeometry x="942" y="783.5" width="70" height="290" as="geometry" />
        </mxCell>
        <mxCell id="Lb5HWGm_DYKcfEpjaOFK-114" value="" style="rounded=0;whiteSpace=wrap;html=1;fillColor=none;dashed=1;dashPattern=1 2;" parent="1" vertex="1">
          <mxGeometry x="474" y="783.5" width="70" height="290" as="geometry" />
        </mxCell>
        <mxCell id="Lb5HWGm_DYKcfEpjaOFK-115" style="rounded=0;orthogonalLoop=1;jettySize=auto;html=1;exitX=1;exitY=0.5;exitDx=0;exitDy=0;entryX=0;entryY=0.5;entryDx=0;entryDy=0;" parent="1" source="Lb5HWGm_DYKcfEpjaOFK-118" target="Lb5HWGm_DYKcfEpjaOFK-119" edge="1">
          <mxGeometry relative="1" as="geometry" />
        </mxCell>
        <mxCell id="Lb5HWGm_DYKcfEpjaOFK-116" style="edgeStyle=none;rounded=0;orthogonalLoop=1;jettySize=auto;html=1;exitX=1;exitY=0;exitDx=0;exitDy=0;entryX=0;entryY=1;entryDx=0;entryDy=0;" parent="1" source="Lb5HWGm_DYKcfEpjaOFK-118" target="Lb5HWGm_DYKcfEpjaOFK-127" edge="1">
          <mxGeometry relative="1" as="geometry" />
        </mxCell>
        <mxCell id="Lb5HWGm_DYKcfEpjaOFK-117" style="edgeStyle=none;rounded=0;orthogonalLoop=1;jettySize=auto;html=1;exitX=1;exitY=1;exitDx=0;exitDy=0;entryX=0;entryY=0;entryDx=0;entryDy=0;" parent="1" source="Lb5HWGm_DYKcfEpjaOFK-118" target="Lb5HWGm_DYKcfEpjaOFK-130" edge="1">
          <mxGeometry relative="1" as="geometry" />
        </mxCell>
        <mxCell id="Lb5HWGm_DYKcfEpjaOFK-118" value="v&lt;sub&gt;t2&lt;span style=&quot;font-size: 10px;&quot;&gt;→t0&lt;/span&gt;&lt;/sub&gt;" style="ellipse;whiteSpace=wrap;html=1;aspect=fixed;fillColor=none;dashed=1;" parent="1" vertex="1">
          <mxGeometry x="484" y="903.5" width="50" height="50" as="geometry" />
        </mxCell>
        <mxCell id="Lb5HWGm_DYKcfEpjaOFK-119" value="r&lt;sub&gt;i&lt;/sub&gt;" style="ellipse;whiteSpace=wrap;html=1;aspect=fixed;fillColor=none;" parent="1" vertex="1">
          <mxGeometry x="594" y="875.5" width="50" height="50" as="geometry" />
        </mxCell>
        <mxCell id="Lb5HWGm_DYKcfEpjaOFK-120" value="v&lt;sub&gt;t2&lt;span style=&quot;font-size: 10px;&quot;&gt;←t0&lt;/span&gt;&lt;/sub&gt;" style="ellipse;whiteSpace=wrap;html=1;aspect=fixed;fillColor=none;dashed=1;" parent="1" vertex="1">
          <mxGeometry x="953" y="903.5" width="50" height="50" as="geometry" />
        </mxCell>
        <mxCell id="Lb5HWGm_DYKcfEpjaOFK-121" value="" style="endArrow=classic;html=1;rounded=0;entryX=0;entryY=0.5;entryDx=0;entryDy=0;" parent="1" target="Lb5HWGm_DYKcfEpjaOFK-120" edge="1">
          <mxGeometry width="50" height="50" relative="1" as="geometry">
            <mxPoint x="883" y="888.5" as="sourcePoint" />
            <mxPoint x="863" y="883.5" as="targetPoint" />
          </mxGeometry>
        </mxCell>
        <mxCell id="Lb5HWGm_DYKcfEpjaOFK-122" style="edgeStyle=none;rounded=0;orthogonalLoop=1;jettySize=auto;html=1;exitX=1;exitY=1;exitDx=0;exitDy=0;entryX=0;entryY=0;entryDx=0;entryDy=0;" parent="1" source="Lb5HWGm_DYKcfEpjaOFK-123" target="Lb5HWGm_DYKcfEpjaOFK-135" edge="1">
          <mxGeometry relative="1" as="geometry" />
        </mxCell>
        <mxCell id="Lb5HWGm_DYKcfEpjaOFK-123" value="l&lt;sub&gt;k&lt;/sub&gt;" style="ellipse;whiteSpace=wrap;html=1;aspect=fixed;fillColor=none;" parent="1" vertex="1">
          <mxGeometry x="833" y="875.5" width="50" height="50" as="geometry" />
        </mxCell>
        <mxCell id="Lb5HWGm_DYKcfEpjaOFK-124" style="rounded=0;orthogonalLoop=1;jettySize=auto;html=1;exitX=1;exitY=0.5;exitDx=0;exitDy=0;entryX=0;entryY=0.5;entryDx=0;entryDy=0;" parent="1" source="Lb5HWGm_DYKcfEpjaOFK-126" target="Lb5HWGm_DYKcfEpjaOFK-127" edge="1">
          <mxGeometry relative="1" as="geometry" />
        </mxCell>
        <mxCell id="Lb5HWGm_DYKcfEpjaOFK-125" style="edgeStyle=none;rounded=0;orthogonalLoop=1;jettySize=auto;html=1;exitX=1;exitY=1;exitDx=0;exitDy=0;entryX=0;entryY=0;entryDx=0;entryDy=0;" parent="1" source="Lb5HWGm_DYKcfEpjaOFK-126" target="Lb5HWGm_DYKcfEpjaOFK-119" edge="1">
          <mxGeometry relative="1" as="geometry" />
        </mxCell>
        <mxCell id="Lb5HWGm_DYKcfEpjaOFK-126" value="&lt;span style=&quot;font-size: 12px;&quot;&gt;v&lt;/span&gt;&lt;sub&gt;t1&lt;span style=&quot;font-size: 10px;&quot;&gt;→t0&lt;/span&gt;&lt;/sub&gt;" style="ellipse;whiteSpace=wrap;html=1;aspect=fixed;fillColor=none;dashed=1;" parent="1" vertex="1">
          <mxGeometry x="484" y="792.5" width="50" height="50" as="geometry" />
        </mxCell>
        <mxCell id="Lb5HWGm_DYKcfEpjaOFK-127" value="r&lt;sub&gt;1&lt;/sub&gt;" style="ellipse;whiteSpace=wrap;html=1;aspect=fixed;fillColor=none;" parent="1" vertex="1">
          <mxGeometry x="594" y="792.5" width="50" height="50" as="geometry" />
        </mxCell>
        <mxCell id="Lb5HWGm_DYKcfEpjaOFK-129" value="v&lt;sub&gt;t3&lt;span style=&quot;font-size: 10px;&quot;&gt;→t0&lt;/span&gt;&lt;/sub&gt;" style="ellipse;whiteSpace=wrap;html=1;aspect=fixed;fillColor=none;dashed=1;" parent="1" vertex="1">
          <mxGeometry x="484" y="1014.5" width="50" height="50" as="geometry" />
        </mxCell>
        <mxCell id="Lb5HWGm_DYKcfEpjaOFK-130" value="r&lt;span style=&quot;font-size: 10px;&quot;&gt;&lt;sub&gt;j&lt;/sub&gt;&lt;/span&gt;" style="ellipse;whiteSpace=wrap;html=1;aspect=fixed;fillColor=none;" parent="1" vertex="1">
          <mxGeometry x="594" y="1014.5" width="50" height="50" as="geometry" />
        </mxCell>
        <mxCell id="Lb5HWGm_DYKcfEpjaOFK-131" value="v&lt;sub&gt;t1&lt;span style=&quot;font-size: 10px;&quot;&gt;←t0&lt;/span&gt;&lt;/sub&gt;" style="ellipse;whiteSpace=wrap;html=1;aspect=fixed;fillColor=none;dashed=1;" parent="1" vertex="1">
          <mxGeometry x="953" y="792.5" width="50" height="50" as="geometry" />
        </mxCell>
        <mxCell id="Lb5HWGm_DYKcfEpjaOFK-132" value="" style="endArrow=classic;html=1;rounded=0;entryX=0;entryY=0.5;entryDx=0;entryDy=0;" parent="1" target="Lb5HWGm_DYKcfEpjaOFK-131" edge="1">
          <mxGeometry width="50" height="50" relative="1" as="geometry">
            <mxPoint x="883" y="817.5" as="sourcePoint" />
            <mxPoint x="863" y="812.5" as="targetPoint" />
          </mxGeometry>
        </mxCell>
        <mxCell id="Lb5HWGm_DYKcfEpjaOFK-133" style="edgeStyle=none;rounded=0;orthogonalLoop=1;jettySize=auto;html=1;exitX=1;exitY=1;exitDx=0;exitDy=0;entryX=0;entryY=0;entryDx=0;entryDy=0;" parent="1" source="Lb5HWGm_DYKcfEpjaOFK-134" target="Lb5HWGm_DYKcfEpjaOFK-120" edge="1">
          <mxGeometry relative="1" as="geometry" />
        </mxCell>
        <mxCell id="Lb5HWGm_DYKcfEpjaOFK-134" value="l&lt;sub&gt;1&lt;/sub&gt;" style="ellipse;whiteSpace=wrap;html=1;aspect=fixed;fillColor=none;" parent="1" vertex="1">
          <mxGeometry x="833" y="792.5" width="50" height="50" as="geometry" />
        </mxCell>
        <mxCell id="Lb5HWGm_DYKcfEpjaOFK-135" value="v&lt;sub&gt;t3&lt;span style=&quot;font-size: 10px;&quot;&gt;←t0&lt;/span&gt;&lt;/sub&gt;" style="ellipse;whiteSpace=wrap;html=1;aspect=fixed;fillColor=none;dashed=1;" parent="1" vertex="1">
          <mxGeometry x="953" y="1014.5" width="50" height="50" as="geometry" />
        </mxCell>
        <mxCell id="Lb5HWGm_DYKcfEpjaOFK-136" value="" style="endArrow=classic;html=1;rounded=0;entryX=0;entryY=0.5;entryDx=0;entryDy=0;exitX=1;exitY=0.5;exitDx=0;exitDy=0;" parent="1" source="Lb5HWGm_DYKcfEpjaOFK-138" target="Lb5HWGm_DYKcfEpjaOFK-135" edge="1">
          <mxGeometry width="50" height="50" relative="1" as="geometry">
            <mxPoint x="883" y="958.5" as="sourcePoint" />
            <mxPoint x="863" y="953.5" as="targetPoint" />
          </mxGeometry>
        </mxCell>
        <mxCell id="Lb5HWGm_DYKcfEpjaOFK-137" style="edgeStyle=none;rounded=0;orthogonalLoop=1;jettySize=auto;html=1;exitX=1;exitY=0;exitDx=0;exitDy=0;entryX=0;entryY=1;entryDx=0;entryDy=0;" parent="1" source="Lb5HWGm_DYKcfEpjaOFK-138" target="Lb5HWGm_DYKcfEpjaOFK-120" edge="1">
          <mxGeometry relative="1" as="geometry" />
        </mxCell>
        <mxCell id="Lb5HWGm_DYKcfEpjaOFK-138" value="l&lt;sub&gt;d&lt;/sub&gt;" style="ellipse;whiteSpace=wrap;html=1;aspect=fixed;fillColor=none;" parent="1" vertex="1">
          <mxGeometry x="833" y="1014.5" width="50" height="50" as="geometry" />
        </mxCell>
        <mxCell id="Lb5HWGm_DYKcfEpjaOFK-139" value="V&lt;sub&gt;in&lt;/sub&gt;(t0)" style="text;html=1;align=center;verticalAlign=middle;resizable=0;points=[];autosize=1;strokeColor=none;fillColor=none;" parent="1" vertex="1">
          <mxGeometry x="474" y="758.5" width="60" height="30" as="geometry" />
        </mxCell>
        <mxCell id="Lb5HWGm_DYKcfEpjaOFK-140" value="V&lt;span style=&quot;font-size: 10px;&quot;&gt;&lt;sub&gt;out&lt;/sub&gt;&lt;/span&gt;(t0)" style="text;html=1;align=center;verticalAlign=middle;resizable=0;points=[];autosize=1;strokeColor=none;fillColor=none;" parent="1" vertex="1">
          <mxGeometry x="942" y="758.5" width="60" height="30" as="geometry" />
        </mxCell>
        <mxCell id="Lb5HWGm_DYKcfEpjaOFK-141" value="M(t0)" style="text;html=1;align=center;verticalAlign=middle;resizable=0;points=[];autosize=1;strokeColor=none;fillColor=none;rotation=0;" parent="1" vertex="1">
          <mxGeometry x="709" y="740.5" width="50" height="30" as="geometry" />
        </mxCell>
        <mxCell id="Lb5HWGm_DYKcfEpjaOFK-142" value="E&lt;sub&gt;in&lt;/sub&gt;(t0)" style="text;html=1;align=center;verticalAlign=middle;resizable=0;points=[];autosize=1;strokeColor=none;fillColor=none;" parent="1" vertex="1">
          <mxGeometry x="534" y="768.5" width="60" height="30" as="geometry" />
        </mxCell>
        <mxCell id="Lb5HWGm_DYKcfEpjaOFK-143" value="E&lt;sub&gt;out&lt;/sub&gt;(t0)" style="text;html=1;align=center;verticalAlign=middle;resizable=0;points=[];autosize=1;strokeColor=none;fillColor=none;" parent="1" vertex="1">
          <mxGeometry x="886" y="768.5" width="60" height="30" as="geometry" />
        </mxCell>
        <mxCell id="Lb5HWGm_DYKcfEpjaOFK-144" value="M&lt;sup&gt;*&lt;/sup&gt;(t0)" style="text;html=1;align=center;verticalAlign=middle;resizable=0;points=[];autosize=1;strokeColor=none;fillColor=none;" parent="1" vertex="1">
          <mxGeometry x="704" y="715.5" width="60" height="30" as="geometry" />
        </mxCell>
        <mxCell id="Lb5HWGm_DYKcfEpjaOFK-145" value="" style="rounded=0;whiteSpace=wrap;html=1;fillColor=none;dashed=1;dashPattern=1 2;" parent="1" vertex="1">
          <mxGeometry x="554" y="793.5" width="20" height="260" as="geometry" />
        </mxCell>
        <mxCell id="Lb5HWGm_DYKcfEpjaOFK-146" value="" style="rounded=0;whiteSpace=wrap;html=1;fillColor=none;dashed=1;dashPattern=1 2;" parent="1" vertex="1">
          <mxGeometry x="903" y="793.5" width="30" height="260" as="geometry" />
        </mxCell>
        <mxCell id="Lb5HWGm_DYKcfEpjaOFK-147" value="" style="ellipse;whiteSpace=wrap;html=1;aspect=fixed;fillColor=#000000;rotation=90;" parent="1" vertex="1">
          <mxGeometry x="615" y="844.5" width="7" height="7" as="geometry" />
        </mxCell>
        <mxCell id="Lb5HWGm_DYKcfEpjaOFK-148" value="" style="ellipse;whiteSpace=wrap;html=1;aspect=fixed;fillColor=#000000;rotation=90;" parent="1" vertex="1">
          <mxGeometry x="615" y="855.5" width="7" height="7" as="geometry" />
        </mxCell>
        <mxCell id="Lb5HWGm_DYKcfEpjaOFK-149" value="" style="ellipse;whiteSpace=wrap;html=1;aspect=fixed;fillColor=#000000;rotation=90;" parent="1" vertex="1">
          <mxGeometry x="615" y="866.5" width="7" height="7" as="geometry" />
        </mxCell>
        <mxCell id="Lb5HWGm_DYKcfEpjaOFK-150" value="r&lt;sub&gt;i+1&lt;/sub&gt;" style="ellipse;whiteSpace=wrap;html=1;aspect=fixed;fillColor=none;" parent="1" vertex="1">
          <mxGeometry x="594" y="929.5" width="50" height="50" as="geometry" />
        </mxCell>
        <mxCell id="Lb5HWGm_DYKcfEpjaOFK-151" value="" style="ellipse;whiteSpace=wrap;html=1;aspect=fixed;fillColor=#000000;rotation=90;" parent="1" vertex="1">
          <mxGeometry x="615" y="982.5" width="7" height="7" as="geometry" />
        </mxCell>
        <mxCell id="Lb5HWGm_DYKcfEpjaOFK-152" value="" style="ellipse;whiteSpace=wrap;html=1;aspect=fixed;fillColor=#000000;rotation=90;" parent="1" vertex="1">
          <mxGeometry x="615" y="993.5" width="7" height="7" as="geometry" />
        </mxCell>
        <mxCell id="Lb5HWGm_DYKcfEpjaOFK-153" value="" style="ellipse;whiteSpace=wrap;html=1;aspect=fixed;fillColor=#000000;rotation=90;" parent="1" vertex="1">
          <mxGeometry x="615" y="1004.5" width="7" height="7" as="geometry" />
        </mxCell>
        <mxCell id="Lb5HWGm_DYKcfEpjaOFK-154" value="" style="ellipse;whiteSpace=wrap;html=1;aspect=fixed;fillColor=#000000;rotation=90;" parent="1" vertex="1">
          <mxGeometry x="855" y="844.5" width="7" height="7" as="geometry" />
        </mxCell>
        <mxCell id="Lb5HWGm_DYKcfEpjaOFK-155" value="" style="ellipse;whiteSpace=wrap;html=1;aspect=fixed;fillColor=#000000;rotation=90;" parent="1" vertex="1">
          <mxGeometry x="855" y="855.5" width="7" height="7" as="geometry" />
        </mxCell>
        <mxCell id="Lb5HWGm_DYKcfEpjaOFK-156" value="" style="ellipse;whiteSpace=wrap;html=1;aspect=fixed;fillColor=#000000;rotation=90;" parent="1" vertex="1">
          <mxGeometry x="855" y="866.5" width="7" height="7" as="geometry" />
        </mxCell>
        <mxCell id="Lb5HWGm_DYKcfEpjaOFK-157" value="" style="ellipse;whiteSpace=wrap;html=1;aspect=fixed;fillColor=#000000;rotation=90;" parent="1" vertex="1">
          <mxGeometry x="855" y="982.5" width="7" height="7" as="geometry" />
        </mxCell>
        <mxCell id="Lb5HWGm_DYKcfEpjaOFK-158" value="" style="ellipse;whiteSpace=wrap;html=1;aspect=fixed;fillColor=#000000;rotation=90;" parent="1" vertex="1">
          <mxGeometry x="855" y="993.5" width="7" height="7" as="geometry" />
        </mxCell>
        <mxCell id="Lb5HWGm_DYKcfEpjaOFK-159" value="" style="ellipse;whiteSpace=wrap;html=1;aspect=fixed;fillColor=#000000;rotation=90;" parent="1" vertex="1">
          <mxGeometry x="855" y="1004.5" width="7" height="7" as="geometry" />
        </mxCell>
        <mxCell id="Lb5HWGm_DYKcfEpjaOFK-160" value="l&lt;sub&gt;k+1&lt;/sub&gt;" style="ellipse;whiteSpace=wrap;html=1;aspect=fixed;fillColor=none;" parent="1" vertex="1">
          <mxGeometry x="833" y="928.5" width="50" height="50" as="geometry" />
        </mxCell>
        <mxCell id="Lb5HWGm_DYKcfEpjaOFK-161" value="Receptors(t)" style="text;html=1;align=center;verticalAlign=middle;resizable=0;points=[];autosize=1;strokeColor=none;fillColor=none;" parent="1" vertex="1">
          <mxGeometry x="582" y="759.5" width="90" height="30" as="geometry" />
        </mxCell>
        <mxCell id="Lb5HWGm_DYKcfEpjaOFK-162" value="Ligands(t)" style="text;html=1;align=center;verticalAlign=middle;resizable=0;points=[];autosize=1;strokeColor=none;fillColor=none;" parent="1" vertex="1">
          <mxGeometry x="813" y="758.5" width="80" height="30" as="geometry" />
        </mxCell>
        <mxCell id="Lb5HWGm_DYKcfEpjaOFK-163" value="" style="group;dashed=1;dashPattern=1 2;fillColor=none;" parent="1" vertex="1" connectable="0">
          <mxGeometry x="686" y="875.5" width="116" height="90" as="geometry" />
        </mxCell>
        <mxCell id="Lb5HWGm_DYKcfEpjaOFK-164" style="edgeStyle=none;rounded=0;orthogonalLoop=1;jettySize=auto;html=1;exitX=0.65;exitY=1.017;exitDx=0;exitDy=0;endArrow=baseDash;endFill=0;exitPerimeter=0;" parent="Lb5HWGm_DYKcfEpjaOFK-163" source="Lb5HWGm_DYKcfEpjaOFK-176" edge="1">
          <mxGeometry relative="1" as="geometry">
            <mxPoint x="87" y="38" as="targetPoint" />
            <mxPoint x="76.70967741935482" y="38.06646525679757" as="sourcePoint" />
          </mxGeometry>
        </mxCell>
        <mxCell id="Lb5HWGm_DYKcfEpjaOFK-165" value="" style="rounded=1;whiteSpace=wrap;html=1;dashed=1;dashPattern=1 2;fillColor=none;" parent="Lb5HWGm_DYKcfEpjaOFK-163" vertex="1">
          <mxGeometry x="96.99838709677418" y="-12.002567975830821" width="22.451612903225808" height="16.314199395770398" as="geometry" />
        </mxCell>
        <mxCell id="Lb5HWGm_DYKcfEpjaOFK-166" value="" style="rounded=1;whiteSpace=wrap;html=1;dashed=1;dashPattern=1 2;fillColor=none;" parent="Lb5HWGm_DYKcfEpjaOFK-163" vertex="1">
          <mxGeometry x="55.00645161290322" y="66.66163141993957" width="22.451612903225808" height="16.314199395770398" as="geometry" />
        </mxCell>
        <mxCell id="Lb5HWGm_DYKcfEpjaOFK-167" style="edgeStyle=none;rounded=0;orthogonalLoop=1;jettySize=auto;html=1;exitX=1;exitY=0.25;exitDx=0;exitDy=0;entryX=0.25;entryY=1;entryDx=0;entryDy=0;endArrow=classicThin;endFill=1;" parent="Lb5HWGm_DYKcfEpjaOFK-163" source="Lb5HWGm_DYKcfEpjaOFK-166" target="Lb5HWGm_DYKcfEpjaOFK-165" edge="1">
          <mxGeometry relative="1" as="geometry">
            <mxPoint x="72.96774193548384" y="59.81873111782477" as="sourcePoint" />
            <mxPoint x="92.42580645161291" y="43.24350453172204" as="targetPoint" />
          </mxGeometry>
        </mxCell>
        <mxCell id="Lb5HWGm_DYKcfEpjaOFK-168" value="" style="rounded=1;whiteSpace=wrap;html=1;dashed=1;dashPattern=1 2;fillColor=none;" parent="Lb5HWGm_DYKcfEpjaOFK-163" vertex="1">
          <mxGeometry x="20.58064516129032" y="29.909365558912384" width="22.451612903225808" height="16.314199395770398" as="geometry" />
        </mxCell>
        <mxCell id="Lb5HWGm_DYKcfEpjaOFK-169" style="rounded=0;orthogonalLoop=1;jettySize=auto;html=1;exitX=1;exitY=0.633;exitDx=0;exitDy=0;entryX=0;entryY=0;entryDx=0;entryDy=0;endArrow=baseDash;endFill=0;exitPerimeter=0;" parent="Lb5HWGm_DYKcfEpjaOFK-163" source="Lb5HWGm_DYKcfEpjaOFK-168" target="Lb5HWGm_DYKcfEpjaOFK-166" edge="1">
          <mxGeometry relative="1" as="geometry">
            <mxPoint x="58" y="54.380664652567965" as="targetPoint" />
            <mxPoint x="42.71125074952516" y="40.31898613979332" as="sourcePoint" />
          </mxGeometry>
        </mxCell>
        <mxCell id="Lb5HWGm_DYKcfEpjaOFK-170" style="rounded=0;orthogonalLoop=1;jettySize=auto;html=1;entryX=0;entryY=0;entryDx=0;entryDy=0;endArrow=baseDash;endFill=0;dashed=1;" parent="Lb5HWGm_DYKcfEpjaOFK-163" target="Lb5HWGm_DYKcfEpjaOFK-176" edge="1">
          <mxGeometry relative="1" as="geometry">
            <mxPoint x="56.87741935483871" y="54.380664652567965" as="targetPoint" />
            <mxPoint x="17" y="-32" as="sourcePoint" />
          </mxGeometry>
        </mxCell>
        <mxCell id="Lb5HWGm_DYKcfEpjaOFK-171" style="rounded=0;orthogonalLoop=1;jettySize=auto;html=1;entryX=0;entryY=0;entryDx=0;entryDy=0;endArrow=baseDash;endFill=0;dashed=1;" parent="Lb5HWGm_DYKcfEpjaOFK-163" target="Lb5HWGm_DYKcfEpjaOFK-168" edge="1">
          <mxGeometry relative="1" as="geometry">
            <mxPoint x="63.61290322580645" y="24.471299093655578" as="targetPoint" />
            <mxPoint x="7.483870967741933" y="13.595166163141991" as="sourcePoint" />
          </mxGeometry>
        </mxCell>
        <mxCell id="Lb5HWGm_DYKcfEpjaOFK-172" style="rounded=0;orthogonalLoop=1;jettySize=auto;html=1;endArrow=baseDash;endFill=0;dashed=1;entryX=-0.033;entryY=0.9;entryDx=0;entryDy=0;entryPerimeter=0;" parent="Lb5HWGm_DYKcfEpjaOFK-163" target="Lb5HWGm_DYKcfEpjaOFK-193" edge="1">
          <mxGeometry relative="1" as="geometry">
            <mxPoint x="14.967741935483867" y="84.29003021148034" as="targetPoint" />
            <mxPoint x="-3" y="128" as="sourcePoint" />
          </mxGeometry>
        </mxCell>
        <mxCell id="Lb5HWGm_DYKcfEpjaOFK-173" style="edgeStyle=none;rounded=0;orthogonalLoop=1;jettySize=auto;html=1;exitX=1;exitY=0.5;exitDx=0;exitDy=0;entryX=0;entryY=1;entryDx=0;entryDy=0;endArrow=classicThin;endFill=1;dashed=1;" parent="Lb5HWGm_DYKcfEpjaOFK-163" edge="1">
          <mxGeometry relative="1" as="geometry">
            <mxPoint x="4.864516129032258" y="59.81873111782477" as="sourcePoint" />
            <mxPoint x="20.58064516129032" y="46.223564954682786" as="targetPoint" />
          </mxGeometry>
        </mxCell>
        <mxCell id="Lb5HWGm_DYKcfEpjaOFK-174" style="edgeStyle=none;rounded=0;orthogonalLoop=1;jettySize=auto;html=1;entryX=0;entryY=0;entryDx=0;entryDy=0;endArrow=classicThin;endFill=1;dashed=1;" parent="Lb5HWGm_DYKcfEpjaOFK-163" target="Lb5HWGm_DYKcfEpjaOFK-193" edge="1">
          <mxGeometry relative="1" as="geometry">
            <mxPoint x="-3" y="98" as="sourcePoint" />
            <mxPoint x="16.838709677419352" y="74.77341389728095" as="targetPoint" />
          </mxGeometry>
        </mxCell>
        <mxCell id="Lb5HWGm_DYKcfEpjaOFK-175" style="edgeStyle=none;rounded=0;orthogonalLoop=1;jettySize=auto;html=1;entryX=0.45;entryY=-0.017;entryDx=0;entryDy=0;endArrow=classicThin;endFill=1;dashed=1;entryPerimeter=0;" parent="Lb5HWGm_DYKcfEpjaOFK-163" target="Lb5HWGm_DYKcfEpjaOFK-176" edge="1">
          <mxGeometry relative="1" as="geometry">
            <mxPoint x="37" y="-42" as="sourcePoint" />
            <mxPoint x="18.709677419354836" y="77.49244712990935" as="targetPoint" />
          </mxGeometry>
        </mxCell>
        <mxCell id="Lb5HWGm_DYKcfEpjaOFK-176" value="" style="rounded=1;whiteSpace=wrap;html=1;dashed=1;dashPattern=1 2;fillColor=none;" parent="Lb5HWGm_DYKcfEpjaOFK-163" vertex="1">
          <mxGeometry x="32.55193548387092" y="-1.9977341389728167" width="22.451612903225808" height="16.314199395770398" as="geometry" />
        </mxCell>
        <mxCell id="Lb5HWGm_DYKcfEpjaOFK-177" style="edgeStyle=none;rounded=0;orthogonalLoop=1;jettySize=auto;html=1;endArrow=baseDash;endFill=0;dashed=1;exitX=1;exitY=0.5;exitDx=0;exitDy=0;" parent="1" source="Lb5HWGm_DYKcfEpjaOFK-127" edge="1">
          <mxGeometry relative="1" as="geometry">
            <mxPoint x="674" y="823.5" as="targetPoint" />
            <mxPoint x="654" y="823.5" as="sourcePoint" />
          </mxGeometry>
        </mxCell>
        <mxCell id="Lb5HWGm_DYKcfEpjaOFK-178" style="edgeStyle=none;rounded=0;orthogonalLoop=1;jettySize=auto;html=1;exitX=0.983;exitY=0.373;exitDx=0;exitDy=0;dashed=1;endArrow=classicThin;endFill=1;exitPerimeter=0;" parent="1" source="Lb5HWGm_DYKcfEpjaOFK-127" edge="1">
          <mxGeometry relative="1" as="geometry">
            <mxPoint x="679" y="800.5" as="targetPoint" />
            <mxPoint x="647" y="810.9224999999999" as="sourcePoint" />
          </mxGeometry>
        </mxCell>
        <mxCell id="Lb5HWGm_DYKcfEpjaOFK-179" style="edgeStyle=none;rounded=0;orthogonalLoop=1;jettySize=auto;html=1;endArrow=baseDash;endFill=0;dashed=1;exitX=1;exitY=0.5;exitDx=0;exitDy=0;" parent="1" edge="1">
          <mxGeometry relative="1" as="geometry">
            <mxPoint x="674" y="906.5" as="targetPoint" />
            <mxPoint x="644.0000000000018" y="900.4999999999998" as="sourcePoint" />
          </mxGeometry>
        </mxCell>
        <mxCell id="Lb5HWGm_DYKcfEpjaOFK-180" style="edgeStyle=none;rounded=0;orthogonalLoop=1;jettySize=auto;html=1;exitX=0.983;exitY=0.373;exitDx=0;exitDy=0;dashed=1;endArrow=classicThin;endFill=1;exitPerimeter=0;" parent="1" edge="1">
          <mxGeometry relative="1" as="geometry">
            <mxPoint x="679" y="883.5" as="targetPoint" />
            <mxPoint x="643.1500000000001" y="894.1500000000003" as="sourcePoint" />
          </mxGeometry>
        </mxCell>
        <mxCell id="Lb5HWGm_DYKcfEpjaOFK-181" style="edgeStyle=none;rounded=0;orthogonalLoop=1;jettySize=auto;html=1;endArrow=baseDash;endFill=0;dashed=1;exitX=1;exitY=0.5;exitDx=0;exitDy=0;" parent="1" edge="1">
          <mxGeometry relative="1" as="geometry">
            <mxPoint x="675" y="961.5" as="targetPoint" />
            <mxPoint x="645.0000000000018" y="955.4999999999998" as="sourcePoint" />
          </mxGeometry>
        </mxCell>
        <mxCell id="Lb5HWGm_DYKcfEpjaOFK-182" style="edgeStyle=none;rounded=0;orthogonalLoop=1;jettySize=auto;html=1;exitX=0.983;exitY=0.373;exitDx=0;exitDy=0;dashed=1;endArrow=classicThin;endFill=1;exitPerimeter=0;" parent="1" edge="1">
          <mxGeometry relative="1" as="geometry">
            <mxPoint x="680" y="938.5" as="targetPoint" />
            <mxPoint x="644.1500000000001" y="949.1500000000003" as="sourcePoint" />
          </mxGeometry>
        </mxCell>
        <mxCell id="Lb5HWGm_DYKcfEpjaOFK-183" style="edgeStyle=none;rounded=0;orthogonalLoop=1;jettySize=auto;html=1;endArrow=baseDash;endFill=0;dashed=1;exitX=1;exitY=0.5;exitDx=0;exitDy=0;" parent="1" edge="1">
          <mxGeometry relative="1" as="geometry">
            <mxPoint x="675" y="1046.5" as="targetPoint" />
            <mxPoint x="645.0000000000018" y="1040.4999999999998" as="sourcePoint" />
          </mxGeometry>
        </mxCell>
        <mxCell id="Lb5HWGm_DYKcfEpjaOFK-184" style="edgeStyle=none;rounded=0;orthogonalLoop=1;jettySize=auto;html=1;exitX=0.983;exitY=0.373;exitDx=0;exitDy=0;dashed=1;endArrow=classicThin;endFill=1;exitPerimeter=0;" parent="1" edge="1">
          <mxGeometry relative="1" as="geometry">
            <mxPoint x="680" y="1023.5" as="targetPoint" />
            <mxPoint x="644.1500000000001" y="1034.1500000000003" as="sourcePoint" />
          </mxGeometry>
        </mxCell>
        <mxCell id="Lb5HWGm_DYKcfEpjaOFK-185" style="edgeStyle=none;rounded=0;orthogonalLoop=1;jettySize=auto;html=1;endArrow=baseDash;endFill=0;dashed=1;entryX=-0.021;entryY=0.63;entryDx=0;entryDy=0;entryPerimeter=0;" parent="1" target="Lb5HWGm_DYKcfEpjaOFK-160" edge="1">
          <mxGeometry relative="1" as="geometry">
            <mxPoint x="834.9999999999999" y="966.5" as="targetPoint" />
            <mxPoint x="807" y="968.5" as="sourcePoint" />
          </mxGeometry>
        </mxCell>
        <mxCell id="Lb5HWGm_DYKcfEpjaOFK-186" style="edgeStyle=none;rounded=0;orthogonalLoop=1;jettySize=auto;html=1;dashed=1;endArrow=classicThin;endFill=1;entryX=0;entryY=0.5;entryDx=0;entryDy=0;" parent="1" target="Lb5HWGm_DYKcfEpjaOFK-160" edge="1">
          <mxGeometry relative="1" as="geometry">
            <mxPoint x="839.9999999999999" y="943.5" as="targetPoint" />
            <mxPoint x="807" y="943.5" as="sourcePoint" />
          </mxGeometry>
        </mxCell>
        <mxCell id="Lb5HWGm_DYKcfEpjaOFK-187" style="edgeStyle=none;rounded=0;orthogonalLoop=1;jettySize=auto;html=1;endArrow=baseDash;endFill=0;dashed=1;entryX=-0.021;entryY=0.63;entryDx=0;entryDy=0;entryPerimeter=0;" parent="1" edge="1">
          <mxGeometry relative="1" as="geometry">
            <mxPoint x="831.9499999999998" y="906" as="targetPoint" />
            <mxPoint x="807" y="914.5" as="sourcePoint" />
          </mxGeometry>
        </mxCell>
        <mxCell id="Lb5HWGm_DYKcfEpjaOFK-188" style="edgeStyle=none;rounded=0;orthogonalLoop=1;jettySize=auto;html=1;dashed=1;endArrow=classicThin;endFill=1;entryX=0;entryY=0.5;entryDx=0;entryDy=0;" parent="1" edge="1">
          <mxGeometry relative="1" as="geometry">
            <mxPoint x="832.9999999999982" y="899.5" as="targetPoint" />
            <mxPoint x="807" y="889.5" as="sourcePoint" />
          </mxGeometry>
        </mxCell>
        <mxCell id="Lb5HWGm_DYKcfEpjaOFK-189" style="edgeStyle=none;rounded=0;orthogonalLoop=1;jettySize=auto;html=1;endArrow=baseDash;endFill=0;dashed=1;entryX=-0.021;entryY=0.63;entryDx=0;entryDy=0;entryPerimeter=0;" parent="1" edge="1">
          <mxGeometry relative="1" as="geometry">
            <mxPoint x="831.9499999999998" y="1047" as="targetPoint" />
            <mxPoint x="807" y="1055.4999999999998" as="sourcePoint" />
          </mxGeometry>
        </mxCell>
        <mxCell id="Lb5HWGm_DYKcfEpjaOFK-190" style="edgeStyle=none;rounded=0;orthogonalLoop=1;jettySize=auto;html=1;dashed=1;endArrow=classicThin;endFill=1;entryX=0;entryY=0.5;entryDx=0;entryDy=0;" parent="1" edge="1">
          <mxGeometry relative="1" as="geometry">
            <mxPoint x="832.9999999999982" y="1040.4999999999998" as="targetPoint" />
            <mxPoint x="807" y="1030.4999999999998" as="sourcePoint" />
          </mxGeometry>
        </mxCell>
        <mxCell id="Lb5HWGm_DYKcfEpjaOFK-191" style="edgeStyle=none;rounded=0;orthogonalLoop=1;jettySize=auto;html=1;endArrow=baseDash;endFill=0;dashed=1;entryX=-0.021;entryY=0.63;entryDx=0;entryDy=0;entryPerimeter=0;" parent="1" edge="1">
          <mxGeometry relative="1" as="geometry">
            <mxPoint x="831.9499999999998" y="823" as="targetPoint" />
            <mxPoint x="807" y="831.5" as="sourcePoint" />
          </mxGeometry>
        </mxCell>
        <mxCell id="Lb5HWGm_DYKcfEpjaOFK-192" style="edgeStyle=none;rounded=0;orthogonalLoop=1;jettySize=auto;html=1;dashed=1;endArrow=classicThin;endFill=1;entryX=0;entryY=0.5;entryDx=0;entryDy=0;" parent="1" edge="1">
          <mxGeometry relative="1" as="geometry">
            <mxPoint x="832.9999999999982" y="816.5" as="targetPoint" />
            <mxPoint x="807" y="806.5" as="sourcePoint" />
          </mxGeometry>
        </mxCell>
        <mxCell id="Lb5HWGm_DYKcfEpjaOFK-193" value="" style="rounded=1;whiteSpace=wrap;html=1;dashed=1;dashPattern=1 2;fillColor=none;" parent="1" vertex="1">
          <mxGeometry x="702.8387096774193" y="983.4958006042295" width="22.451612903225808" height="16.314199395770398" as="geometry" />
        </mxCell>
        <mxCell id="Lb5HWGm_DYKcfEpjaOFK-194" style="edgeStyle=none;rounded=0;orthogonalLoop=1;jettySize=auto;html=1;exitX=1;exitY=0.5;exitDx=0;exitDy=0;entryX=0;entryY=1;entryDx=0;entryDy=0;endArrow=classicThin;endFill=1;" parent="1" source="Lb5HWGm_DYKcfEpjaOFK-193" target="Lb5HWGm_DYKcfEpjaOFK-166" edge="1">
          <mxGeometry relative="1" as="geometry">
            <mxPoint x="724.9693152656541" y="957.5375093284846" as="sourcePoint" />
            <mxPoint x="746.1919750569264" y="943.0093184660773" as="targetPoint" />
          </mxGeometry>
        </mxCell>
        <mxCell id="66mWaM6eEmOpCAhljK_r-1" value="&lt;font style=&quot;font-size: 36px;&quot;&gt;t0&lt;/font&gt;" style="text;html=1;align=center;verticalAlign=middle;resizable=0;points=[];autosize=1;strokeColor=none;fillColor=none;" parent="1" vertex="1">
          <mxGeometry x="720" y="595.5" width="50" height="60" as="geometry" />
        </mxCell>
        <mxCell id="66mWaM6eEmOpCAhljK_r-444" style="edgeStyle=none;rounded=0;orthogonalLoop=1;jettySize=auto;html=1;exitX=0;exitY=1;exitDx=0;exitDy=0;fontSize=36;" parent="1" source="66mWaM6eEmOpCAhljK_r-90" target="66mWaM6eEmOpCAhljK_r-266" edge="1">
          <mxGeometry relative="1" as="geometry" />
        </mxCell>
        <mxCell id="66mWaM6eEmOpCAhljK_r-448" style="edgeStyle=none;rounded=0;orthogonalLoop=1;jettySize=auto;html=1;exitX=0;exitY=0;exitDx=0;exitDy=0;fontSize=36;" parent="1" source="66mWaM6eEmOpCAhljK_r-90" target="66mWaM6eEmOpCAhljK_r-354" edge="1">
          <mxGeometry relative="1" as="geometry" />
        </mxCell>
        <mxCell id="66mWaM6eEmOpCAhljK_r-450" style="edgeStyle=none;rounded=0;orthogonalLoop=1;jettySize=auto;html=1;exitX=0;exitY=0.5;exitDx=0;exitDy=0;entryX=1;entryY=0.5;entryDx=0;entryDy=0;fontSize=36;" parent="1" edge="1">
          <mxGeometry relative="1" as="geometry">
            <mxPoint x="1803.0000000000005" y="889.5" as="sourcePoint" />
            <mxPoint x="1079" y="890" as="targetPoint" />
          </mxGeometry>
        </mxCell>
        <mxCell id="66mWaM6eEmOpCAhljK_r-90" value="" style="ellipse;whiteSpace=wrap;html=1;aspect=fixed;fillColor=none;" parent="1" vertex="1">
          <mxGeometry x="1803" y="580" width="675" height="675" as="geometry" />
        </mxCell>
        <mxCell id="66mWaM6eEmOpCAhljK_r-91" value="" style="rounded=0;whiteSpace=wrap;html=1;fillColor=none;dashed=1;dashPattern=1 2;" parent="1" vertex="1">
          <mxGeometry x="2232" y="783" width="50" height="290" as="geometry" />
        </mxCell>
        <mxCell id="66mWaM6eEmOpCAhljK_r-92" value="" style="rounded=0;whiteSpace=wrap;html=1;fillColor=none;dashed=1;dashPattern=1 2;" parent="1" vertex="1">
          <mxGeometry x="1993" y="783" width="50" height="290" as="geometry" />
        </mxCell>
        <mxCell id="66mWaM6eEmOpCAhljK_r-93" value="" style="rounded=0;whiteSpace=wrap;html=1;fillColor=none;dashed=1;dashPattern=1 2;" parent="1" vertex="1">
          <mxGeometry x="1862" y="745" width="560" height="350" as="geometry" />
        </mxCell>
        <mxCell id="66mWaM6eEmOpCAhljK_r-94" value="" style="rounded=0;whiteSpace=wrap;html=1;fillColor=none;dashed=1;dashPattern=1 2;" parent="1" vertex="1">
          <mxGeometry x="1982" y="765" width="310" height="320" as="geometry" />
        </mxCell>
        <mxCell id="66mWaM6eEmOpCAhljK_r-95" value="" style="rounded=0;whiteSpace=wrap;html=1;fillColor=none;dashed=1;dashPattern=1 2;" parent="1" vertex="1">
          <mxGeometry x="2341" y="783" width="70" height="290" as="geometry" />
        </mxCell>
        <mxCell id="66mWaM6eEmOpCAhljK_r-96" value="" style="rounded=0;whiteSpace=wrap;html=1;fillColor=none;dashed=1;dashPattern=1 2;" parent="1" vertex="1">
          <mxGeometry x="1873" y="783" width="70" height="290" as="geometry" />
        </mxCell>
        <mxCell id="66mWaM6eEmOpCAhljK_r-100" value="v&lt;sub&gt;t1&lt;span style=&quot;font-size: 10px;&quot;&gt;→t2&lt;/span&gt;&lt;/sub&gt;" style="ellipse;whiteSpace=wrap;html=1;aspect=fixed;fillColor=none;dashed=1;" parent="1" vertex="1">
          <mxGeometry x="1883" y="903" width="50" height="50" as="geometry" />
        </mxCell>
        <mxCell id="66mWaM6eEmOpCAhljK_r-101" value="r&lt;sub&gt;i&lt;/sub&gt;" style="ellipse;whiteSpace=wrap;html=1;aspect=fixed;fillColor=none;" parent="1" vertex="1">
          <mxGeometry x="1993" y="875" width="50" height="50" as="geometry" />
        </mxCell>
        <mxCell id="66mWaM6eEmOpCAhljK_r-102" value="v&lt;sub&gt;t1&lt;span style=&quot;font-size: 10px;&quot;&gt;←t2&lt;/span&gt;&lt;/sub&gt;" style="ellipse;whiteSpace=wrap;html=1;aspect=fixed;fillColor=none;dashed=1;" parent="1" vertex="1">
          <mxGeometry x="2352" y="903" width="50" height="50" as="geometry" />
        </mxCell>
        <mxCell id="66mWaM6eEmOpCAhljK_r-105" value="l&lt;sub&gt;k&lt;/sub&gt;" style="ellipse;whiteSpace=wrap;html=1;aspect=fixed;fillColor=none;" parent="1" vertex="1">
          <mxGeometry x="2232" y="875" width="50" height="50" as="geometry" />
        </mxCell>
        <mxCell id="66mWaM6eEmOpCAhljK_r-106" style="rounded=0;orthogonalLoop=1;jettySize=auto;html=1;exitX=1;exitY=0.5;exitDx=0;exitDy=0;entryX=0;entryY=0.5;entryDx=0;entryDy=0;" parent="1" source="66mWaM6eEmOpCAhljK_r-108" target="66mWaM6eEmOpCAhljK_r-109" edge="1">
          <mxGeometry relative="1" as="geometry" />
        </mxCell>
        <mxCell id="66mWaM6eEmOpCAhljK_r-108" value="&lt;span style=&quot;font-size: 12px;&quot;&gt;v&lt;/span&gt;&lt;sub&gt;t0&lt;span style=&quot;font-size: 10px;&quot;&gt;→t2&lt;/span&gt;&lt;/sub&gt;" style="ellipse;whiteSpace=wrap;html=1;aspect=fixed;fillColor=none;dashed=1;" parent="1" vertex="1">
          <mxGeometry x="1883" y="792" width="50" height="50" as="geometry" />
        </mxCell>
        <mxCell id="66mWaM6eEmOpCAhljK_r-109" value="r&lt;sub&gt;1&lt;/sub&gt;" style="ellipse;whiteSpace=wrap;html=1;aspect=fixed;fillColor=none;" parent="1" vertex="1">
          <mxGeometry x="1993" y="792" width="50" height="50" as="geometry" />
        </mxCell>
        <mxCell id="66mWaM6eEmOpCAhljK_r-110" style="rounded=0;orthogonalLoop=1;jettySize=auto;html=1;exitX=1;exitY=0.5;exitDx=0;exitDy=0;entryX=0;entryY=0.5;entryDx=0;entryDy=0;" parent="1" source="66mWaM6eEmOpCAhljK_r-111" target="66mWaM6eEmOpCAhljK_r-112" edge="1">
          <mxGeometry relative="1" as="geometry" />
        </mxCell>
        <mxCell id="66mWaM6eEmOpCAhljK_r-111" value="v&lt;sub&gt;t3&lt;span style=&quot;font-size: 10px;&quot;&gt;→t2&lt;/span&gt;&lt;/sub&gt;" style="ellipse;whiteSpace=wrap;html=1;aspect=fixed;fillColor=none;dashed=1;" parent="1" vertex="1">
          <mxGeometry x="1883" y="1014" width="50" height="50" as="geometry" />
        </mxCell>
        <mxCell id="66mWaM6eEmOpCAhljK_r-112" value="r&lt;span style=&quot;font-size: 10px;&quot;&gt;&lt;sub&gt;j&lt;/sub&gt;&lt;/span&gt;" style="ellipse;whiteSpace=wrap;html=1;aspect=fixed;fillColor=none;" parent="1" vertex="1">
          <mxGeometry x="1993" y="1014" width="50" height="50" as="geometry" />
        </mxCell>
        <mxCell id="66mWaM6eEmOpCAhljK_r-113" value="v&lt;sub&gt;t0&lt;span style=&quot;font-size: 10px;&quot;&gt;←t2&lt;/span&gt;&lt;/sub&gt;" style="ellipse;whiteSpace=wrap;html=1;aspect=fixed;fillColor=none;dashed=1;" parent="1" vertex="1">
          <mxGeometry x="2352" y="792" width="50" height="50" as="geometry" />
        </mxCell>
        <mxCell id="66mWaM6eEmOpCAhljK_r-114" value="" style="endArrow=classic;html=1;rounded=0;entryX=0;entryY=0.5;entryDx=0;entryDy=0;" parent="1" target="66mWaM6eEmOpCAhljK_r-113" edge="1">
          <mxGeometry width="50" height="50" relative="1" as="geometry">
            <mxPoint x="2282" y="817" as="sourcePoint" />
            <mxPoint x="2262" y="812" as="targetPoint" />
          </mxGeometry>
        </mxCell>
        <mxCell id="66mWaM6eEmOpCAhljK_r-116" value="l&lt;sub&gt;1&lt;/sub&gt;" style="ellipse;whiteSpace=wrap;html=1;aspect=fixed;fillColor=none;" parent="1" vertex="1">
          <mxGeometry x="2232" y="792" width="50" height="50" as="geometry" />
        </mxCell>
        <mxCell id="66mWaM6eEmOpCAhljK_r-117" value="v&lt;sub&gt;t3&lt;span style=&quot;font-size: 10px;&quot;&gt;←t2&lt;/span&gt;&lt;/sub&gt;" style="ellipse;whiteSpace=wrap;html=1;aspect=fixed;fillColor=none;dashed=1;" parent="1" vertex="1">
          <mxGeometry x="2352" y="1014" width="50" height="50" as="geometry" />
        </mxCell>
        <mxCell id="66mWaM6eEmOpCAhljK_r-118" value="" style="endArrow=classic;html=1;rounded=0;entryX=0;entryY=0.5;entryDx=0;entryDy=0;exitX=1;exitY=0.5;exitDx=0;exitDy=0;" parent="1" source="66mWaM6eEmOpCAhljK_r-120" target="66mWaM6eEmOpCAhljK_r-117" edge="1">
          <mxGeometry width="50" height="50" relative="1" as="geometry">
            <mxPoint x="2282" y="958" as="sourcePoint" />
            <mxPoint x="2262" y="953" as="targetPoint" />
          </mxGeometry>
        </mxCell>
        <mxCell id="66mWaM6eEmOpCAhljK_r-120" value="l&lt;sub&gt;d&lt;/sub&gt;" style="ellipse;whiteSpace=wrap;html=1;aspect=fixed;fillColor=none;" parent="1" vertex="1">
          <mxGeometry x="2232" y="1014" width="50" height="50" as="geometry" />
        </mxCell>
        <mxCell id="66mWaM6eEmOpCAhljK_r-121" value="V&lt;sub&gt;in&lt;/sub&gt;(t0)" style="text;html=1;align=center;verticalAlign=middle;resizable=0;points=[];autosize=1;strokeColor=none;fillColor=none;" parent="1" vertex="1">
          <mxGeometry x="1873" y="758" width="60" height="30" as="geometry" />
        </mxCell>
        <mxCell id="66mWaM6eEmOpCAhljK_r-122" value="V&lt;span style=&quot;font-size: 10px;&quot;&gt;&lt;sub&gt;out&lt;/sub&gt;&lt;/span&gt;(t2)" style="text;html=1;align=center;verticalAlign=middle;resizable=0;points=[];autosize=1;strokeColor=none;fillColor=none;" parent="1" vertex="1">
          <mxGeometry x="2341" y="758" width="60" height="30" as="geometry" />
        </mxCell>
        <mxCell id="66mWaM6eEmOpCAhljK_r-123" value="M(t2)" style="text;html=1;align=center;verticalAlign=middle;resizable=0;points=[];autosize=1;strokeColor=none;fillColor=none;rotation=0;" parent="1" vertex="1">
          <mxGeometry x="2108" y="740" width="50" height="30" as="geometry" />
        </mxCell>
        <mxCell id="66mWaM6eEmOpCAhljK_r-124" value="E&lt;sub&gt;in&lt;/sub&gt;(t0)" style="text;html=1;align=center;verticalAlign=middle;resizable=0;points=[];autosize=1;strokeColor=none;fillColor=none;" parent="1" vertex="1">
          <mxGeometry x="1933" y="768" width="60" height="30" as="geometry" />
        </mxCell>
        <mxCell id="66mWaM6eEmOpCAhljK_r-125" value="E&lt;sub&gt;out&lt;/sub&gt;(t2)" style="text;html=1;align=center;verticalAlign=middle;resizable=0;points=[];autosize=1;strokeColor=none;fillColor=none;" parent="1" vertex="1">
          <mxGeometry x="2285" y="768" width="60" height="30" as="geometry" />
        </mxCell>
        <mxCell id="66mWaM6eEmOpCAhljK_r-126" value="M&lt;sup&gt;*&lt;/sup&gt;(t2)" style="text;html=1;align=center;verticalAlign=middle;resizable=0;points=[];autosize=1;strokeColor=none;fillColor=none;" parent="1" vertex="1">
          <mxGeometry x="2103" y="715" width="60" height="30" as="geometry" />
        </mxCell>
        <mxCell id="66mWaM6eEmOpCAhljK_r-127" value="" style="rounded=0;whiteSpace=wrap;html=1;fillColor=none;dashed=1;dashPattern=1 2;" parent="1" vertex="1">
          <mxGeometry x="1953" y="793" width="20" height="260" as="geometry" />
        </mxCell>
        <mxCell id="66mWaM6eEmOpCAhljK_r-128" value="" style="rounded=0;whiteSpace=wrap;html=1;fillColor=none;dashed=1;dashPattern=1 2;" parent="1" vertex="1">
          <mxGeometry x="2302" y="793" width="30" height="260" as="geometry" />
        </mxCell>
        <mxCell id="66mWaM6eEmOpCAhljK_r-129" value="" style="ellipse;whiteSpace=wrap;html=1;aspect=fixed;fillColor=#000000;rotation=90;" parent="1" vertex="1">
          <mxGeometry x="2014" y="844" width="7" height="7" as="geometry" />
        </mxCell>
        <mxCell id="66mWaM6eEmOpCAhljK_r-130" value="" style="ellipse;whiteSpace=wrap;html=1;aspect=fixed;fillColor=#000000;rotation=90;" parent="1" vertex="1">
          <mxGeometry x="2014" y="855" width="7" height="7" as="geometry" />
        </mxCell>
        <mxCell id="66mWaM6eEmOpCAhljK_r-131" value="" style="ellipse;whiteSpace=wrap;html=1;aspect=fixed;fillColor=#000000;rotation=90;" parent="1" vertex="1">
          <mxGeometry x="2014" y="866" width="7" height="7" as="geometry" />
        </mxCell>
        <mxCell id="66mWaM6eEmOpCAhljK_r-132" value="r&lt;sub&gt;i+1&lt;/sub&gt;" style="ellipse;whiteSpace=wrap;html=1;aspect=fixed;fillColor=none;" parent="1" vertex="1">
          <mxGeometry x="1993" y="929" width="50" height="50" as="geometry" />
        </mxCell>
        <mxCell id="66mWaM6eEmOpCAhljK_r-133" value="" style="ellipse;whiteSpace=wrap;html=1;aspect=fixed;fillColor=#000000;rotation=90;" parent="1" vertex="1">
          <mxGeometry x="2014" y="982" width="7" height="7" as="geometry" />
        </mxCell>
        <mxCell id="66mWaM6eEmOpCAhljK_r-134" value="" style="ellipse;whiteSpace=wrap;html=1;aspect=fixed;fillColor=#000000;rotation=90;" parent="1" vertex="1">
          <mxGeometry x="2014" y="993" width="7" height="7" as="geometry" />
        </mxCell>
        <mxCell id="66mWaM6eEmOpCAhljK_r-135" value="" style="ellipse;whiteSpace=wrap;html=1;aspect=fixed;fillColor=#000000;rotation=90;" parent="1" vertex="1">
          <mxGeometry x="2014" y="1004" width="7" height="7" as="geometry" />
        </mxCell>
        <mxCell id="66mWaM6eEmOpCAhljK_r-136" value="" style="ellipse;whiteSpace=wrap;html=1;aspect=fixed;fillColor=#000000;rotation=90;" parent="1" vertex="1">
          <mxGeometry x="2254" y="844" width="7" height="7" as="geometry" />
        </mxCell>
        <mxCell id="66mWaM6eEmOpCAhljK_r-137" value="" style="ellipse;whiteSpace=wrap;html=1;aspect=fixed;fillColor=#000000;rotation=90;" parent="1" vertex="1">
          <mxGeometry x="2254" y="855" width="7" height="7" as="geometry" />
        </mxCell>
        <mxCell id="66mWaM6eEmOpCAhljK_r-138" value="" style="ellipse;whiteSpace=wrap;html=1;aspect=fixed;fillColor=#000000;rotation=90;" parent="1" vertex="1">
          <mxGeometry x="2254" y="866" width="7" height="7" as="geometry" />
        </mxCell>
        <mxCell id="66mWaM6eEmOpCAhljK_r-139" value="" style="ellipse;whiteSpace=wrap;html=1;aspect=fixed;fillColor=#000000;rotation=90;" parent="1" vertex="1">
          <mxGeometry x="2254" y="982" width="7" height="7" as="geometry" />
        </mxCell>
        <mxCell id="66mWaM6eEmOpCAhljK_r-140" value="" style="ellipse;whiteSpace=wrap;html=1;aspect=fixed;fillColor=#000000;rotation=90;" parent="1" vertex="1">
          <mxGeometry x="2254" y="993" width="7" height="7" as="geometry" />
        </mxCell>
        <mxCell id="66mWaM6eEmOpCAhljK_r-141" value="" style="ellipse;whiteSpace=wrap;html=1;aspect=fixed;fillColor=#000000;rotation=90;" parent="1" vertex="1">
          <mxGeometry x="2254" y="1004" width="7" height="7" as="geometry" />
        </mxCell>
        <mxCell id="66mWaM6eEmOpCAhljK_r-458" style="edgeStyle=none;rounded=0;orthogonalLoop=1;jettySize=auto;html=1;exitX=1;exitY=0.5;exitDx=0;exitDy=0;fontSize=36;startArrow=none;startFill=0;endArrow=classic;endFill=1;" parent="1" source="66mWaM6eEmOpCAhljK_r-142" target="66mWaM6eEmOpCAhljK_r-102" edge="1">
          <mxGeometry relative="1" as="geometry" />
        </mxCell>
        <mxCell id="66mWaM6eEmOpCAhljK_r-142" value="l&lt;sub&gt;k+1&lt;/sub&gt;" style="ellipse;whiteSpace=wrap;html=1;aspect=fixed;fillColor=none;" parent="1" vertex="1">
          <mxGeometry x="2232" y="928" width="50" height="50" as="geometry" />
        </mxCell>
        <mxCell id="66mWaM6eEmOpCAhljK_r-143" value="Receptors(t)" style="text;html=1;align=center;verticalAlign=middle;resizable=0;points=[];autosize=1;strokeColor=none;fillColor=none;" parent="1" vertex="1">
          <mxGeometry x="1981" y="759" width="90" height="30" as="geometry" />
        </mxCell>
        <mxCell id="66mWaM6eEmOpCAhljK_r-144" value="Ligands(t)" style="text;html=1;align=center;verticalAlign=middle;resizable=0;points=[];autosize=1;strokeColor=none;fillColor=none;" parent="1" vertex="1">
          <mxGeometry x="2212" y="758" width="80" height="30" as="geometry" />
        </mxCell>
        <mxCell id="66mWaM6eEmOpCAhljK_r-145" value="" style="group;dashed=1;dashPattern=1 2;fillColor=none;" parent="1" vertex="1" connectable="0">
          <mxGeometry x="2085" y="875" width="116" height="90" as="geometry" />
        </mxCell>
        <mxCell id="66mWaM6eEmOpCAhljK_r-146" style="edgeStyle=none;rounded=0;orthogonalLoop=1;jettySize=auto;html=1;exitX=0.65;exitY=1.017;exitDx=0;exitDy=0;endArrow=baseDash;endFill=0;exitPerimeter=0;" parent="66mWaM6eEmOpCAhljK_r-145" source="66mWaM6eEmOpCAhljK_r-158" edge="1">
          <mxGeometry relative="1" as="geometry">
            <mxPoint x="87" y="38" as="targetPoint" />
            <mxPoint x="76.70967741935482" y="38.06646525679757" as="sourcePoint" />
          </mxGeometry>
        </mxCell>
        <mxCell id="66mWaM6eEmOpCAhljK_r-147" value="" style="rounded=1;whiteSpace=wrap;html=1;dashed=1;dashPattern=1 2;fillColor=none;" parent="66mWaM6eEmOpCAhljK_r-145" vertex="1">
          <mxGeometry x="96.99838709677418" y="-12.002567975830821" width="22.451612903225808" height="16.314199395770398" as="geometry" />
        </mxCell>
        <mxCell id="66mWaM6eEmOpCAhljK_r-148" value="" style="rounded=1;whiteSpace=wrap;html=1;dashed=1;dashPattern=1 2;fillColor=none;" parent="66mWaM6eEmOpCAhljK_r-145" vertex="1">
          <mxGeometry x="55.00645161290322" y="66.66163141993957" width="22.451612903225808" height="16.314199395770398" as="geometry" />
        </mxCell>
        <mxCell id="66mWaM6eEmOpCAhljK_r-149" style="edgeStyle=none;rounded=0;orthogonalLoop=1;jettySize=auto;html=1;exitX=1;exitY=0.25;exitDx=0;exitDy=0;entryX=0.25;entryY=1;entryDx=0;entryDy=0;endArrow=classicThin;endFill=1;" parent="66mWaM6eEmOpCAhljK_r-145" source="66mWaM6eEmOpCAhljK_r-148" target="66mWaM6eEmOpCAhljK_r-147" edge="1">
          <mxGeometry relative="1" as="geometry">
            <mxPoint x="72.96774193548384" y="59.81873111782477" as="sourcePoint" />
            <mxPoint x="92.42580645161291" y="43.24350453172204" as="targetPoint" />
          </mxGeometry>
        </mxCell>
        <mxCell id="66mWaM6eEmOpCAhljK_r-150" value="" style="rounded=1;whiteSpace=wrap;html=1;dashed=1;dashPattern=1 2;fillColor=none;" parent="66mWaM6eEmOpCAhljK_r-145" vertex="1">
          <mxGeometry x="20.58064516129032" y="29.909365558912384" width="22.451612903225808" height="16.314199395770398" as="geometry" />
        </mxCell>
        <mxCell id="66mWaM6eEmOpCAhljK_r-151" style="rounded=0;orthogonalLoop=1;jettySize=auto;html=1;exitX=1;exitY=0.633;exitDx=0;exitDy=0;entryX=0;entryY=0;entryDx=0;entryDy=0;endArrow=baseDash;endFill=0;exitPerimeter=0;" parent="66mWaM6eEmOpCAhljK_r-145" source="66mWaM6eEmOpCAhljK_r-150" target="66mWaM6eEmOpCAhljK_r-148" edge="1">
          <mxGeometry relative="1" as="geometry">
            <mxPoint x="58" y="54.380664652567965" as="targetPoint" />
            <mxPoint x="42.71125074952516" y="40.31898613979332" as="sourcePoint" />
          </mxGeometry>
        </mxCell>
        <mxCell id="66mWaM6eEmOpCAhljK_r-152" style="rounded=0;orthogonalLoop=1;jettySize=auto;html=1;entryX=0;entryY=0;entryDx=0;entryDy=0;endArrow=baseDash;endFill=0;dashed=1;" parent="66mWaM6eEmOpCAhljK_r-145" target="66mWaM6eEmOpCAhljK_r-158" edge="1">
          <mxGeometry relative="1" as="geometry">
            <mxPoint x="56.87741935483871" y="54.380664652567965" as="targetPoint" />
            <mxPoint x="17" y="-32" as="sourcePoint" />
          </mxGeometry>
        </mxCell>
        <mxCell id="66mWaM6eEmOpCAhljK_r-153" style="rounded=0;orthogonalLoop=1;jettySize=auto;html=1;entryX=0;entryY=0;entryDx=0;entryDy=0;endArrow=baseDash;endFill=0;dashed=1;" parent="66mWaM6eEmOpCAhljK_r-145" target="66mWaM6eEmOpCAhljK_r-150" edge="1">
          <mxGeometry relative="1" as="geometry">
            <mxPoint x="63.61290322580645" y="24.471299093655578" as="targetPoint" />
            <mxPoint x="7.483870967741933" y="13.595166163141991" as="sourcePoint" />
          </mxGeometry>
        </mxCell>
        <mxCell id="66mWaM6eEmOpCAhljK_r-154" style="rounded=0;orthogonalLoop=1;jettySize=auto;html=1;endArrow=baseDash;endFill=0;dashed=1;entryX=-0.033;entryY=0.9;entryDx=0;entryDy=0;entryPerimeter=0;" parent="66mWaM6eEmOpCAhljK_r-145" target="66mWaM6eEmOpCAhljK_r-175" edge="1">
          <mxGeometry relative="1" as="geometry">
            <mxPoint x="14.967741935483867" y="84.29003021148034" as="targetPoint" />
            <mxPoint x="-3" y="128" as="sourcePoint" />
          </mxGeometry>
        </mxCell>
        <mxCell id="66mWaM6eEmOpCAhljK_r-155" style="edgeStyle=none;rounded=0;orthogonalLoop=1;jettySize=auto;html=1;exitX=1;exitY=0.5;exitDx=0;exitDy=0;entryX=0;entryY=1;entryDx=0;entryDy=0;endArrow=classicThin;endFill=1;dashed=1;" parent="66mWaM6eEmOpCAhljK_r-145" edge="1">
          <mxGeometry relative="1" as="geometry">
            <mxPoint x="4.864516129032258" y="59.81873111782477" as="sourcePoint" />
            <mxPoint x="20.58064516129032" y="46.223564954682786" as="targetPoint" />
          </mxGeometry>
        </mxCell>
        <mxCell id="66mWaM6eEmOpCAhljK_r-156" style="edgeStyle=none;rounded=0;orthogonalLoop=1;jettySize=auto;html=1;entryX=0;entryY=0;entryDx=0;entryDy=0;endArrow=classicThin;endFill=1;dashed=1;" parent="66mWaM6eEmOpCAhljK_r-145" target="66mWaM6eEmOpCAhljK_r-175" edge="1">
          <mxGeometry relative="1" as="geometry">
            <mxPoint x="-3" y="98" as="sourcePoint" />
            <mxPoint x="16.838709677419352" y="74.77341389728095" as="targetPoint" />
          </mxGeometry>
        </mxCell>
        <mxCell id="66mWaM6eEmOpCAhljK_r-157" style="edgeStyle=none;rounded=0;orthogonalLoop=1;jettySize=auto;html=1;entryX=0.45;entryY=-0.017;entryDx=0;entryDy=0;endArrow=classicThin;endFill=1;dashed=1;entryPerimeter=0;" parent="66mWaM6eEmOpCAhljK_r-145" target="66mWaM6eEmOpCAhljK_r-158" edge="1">
          <mxGeometry relative="1" as="geometry">
            <mxPoint x="37" y="-42" as="sourcePoint" />
            <mxPoint x="18.709677419354836" y="77.49244712990935" as="targetPoint" />
          </mxGeometry>
        </mxCell>
        <mxCell id="66mWaM6eEmOpCAhljK_r-158" value="" style="rounded=1;whiteSpace=wrap;html=1;dashed=1;dashPattern=1 2;fillColor=none;" parent="66mWaM6eEmOpCAhljK_r-145" vertex="1">
          <mxGeometry x="32.55193548387092" y="-1.9977341389728167" width="22.451612903225808" height="16.314199395770398" as="geometry" />
        </mxCell>
        <mxCell id="66mWaM6eEmOpCAhljK_r-159" style="edgeStyle=none;rounded=0;orthogonalLoop=1;jettySize=auto;html=1;endArrow=baseDash;endFill=0;dashed=1;exitX=1;exitY=0.5;exitDx=0;exitDy=0;" parent="1" source="66mWaM6eEmOpCAhljK_r-109" edge="1">
          <mxGeometry relative="1" as="geometry">
            <mxPoint x="2073" y="823" as="targetPoint" />
            <mxPoint x="2053" y="823" as="sourcePoint" />
          </mxGeometry>
        </mxCell>
        <mxCell id="66mWaM6eEmOpCAhljK_r-160" style="edgeStyle=none;rounded=0;orthogonalLoop=1;jettySize=auto;html=1;exitX=0.983;exitY=0.373;exitDx=0;exitDy=0;dashed=1;endArrow=classicThin;endFill=1;exitPerimeter=0;" parent="1" source="66mWaM6eEmOpCAhljK_r-109" edge="1">
          <mxGeometry relative="1" as="geometry">
            <mxPoint x="2078" y="800" as="targetPoint" />
            <mxPoint x="2046" y="810.4224999999999" as="sourcePoint" />
          </mxGeometry>
        </mxCell>
        <mxCell id="66mWaM6eEmOpCAhljK_r-161" style="edgeStyle=none;rounded=0;orthogonalLoop=1;jettySize=auto;html=1;endArrow=baseDash;endFill=0;dashed=1;exitX=1;exitY=0.5;exitDx=0;exitDy=0;" parent="1" edge="1">
          <mxGeometry relative="1" as="geometry">
            <mxPoint x="2073" y="906" as="targetPoint" />
            <mxPoint x="2043.0000000000018" y="900" as="sourcePoint" />
          </mxGeometry>
        </mxCell>
        <mxCell id="66mWaM6eEmOpCAhljK_r-162" style="edgeStyle=none;rounded=0;orthogonalLoop=1;jettySize=auto;html=1;exitX=0.983;exitY=0.373;exitDx=0;exitDy=0;dashed=1;endArrow=classicThin;endFill=1;exitPerimeter=0;" parent="1" edge="1">
          <mxGeometry relative="1" as="geometry">
            <mxPoint x="2078" y="883" as="targetPoint" />
            <mxPoint x="2042.15" y="893.6500000000005" as="sourcePoint" />
          </mxGeometry>
        </mxCell>
        <mxCell id="66mWaM6eEmOpCAhljK_r-163" style="edgeStyle=none;rounded=0;orthogonalLoop=1;jettySize=auto;html=1;endArrow=baseDash;endFill=0;dashed=1;exitX=1;exitY=0.5;exitDx=0;exitDy=0;" parent="1" edge="1">
          <mxGeometry relative="1" as="geometry">
            <mxPoint x="2074" y="961" as="targetPoint" />
            <mxPoint x="2044.0000000000018" y="955" as="sourcePoint" />
          </mxGeometry>
        </mxCell>
        <mxCell id="66mWaM6eEmOpCAhljK_r-164" style="edgeStyle=none;rounded=0;orthogonalLoop=1;jettySize=auto;html=1;exitX=0.983;exitY=0.373;exitDx=0;exitDy=0;dashed=1;endArrow=classicThin;endFill=1;exitPerimeter=0;" parent="1" edge="1">
          <mxGeometry relative="1" as="geometry">
            <mxPoint x="2079" y="938" as="targetPoint" />
            <mxPoint x="2043.15" y="948.6500000000005" as="sourcePoint" />
          </mxGeometry>
        </mxCell>
        <mxCell id="66mWaM6eEmOpCAhljK_r-165" style="edgeStyle=none;rounded=0;orthogonalLoop=1;jettySize=auto;html=1;endArrow=baseDash;endFill=0;dashed=1;exitX=1;exitY=0.5;exitDx=0;exitDy=0;" parent="1" edge="1">
          <mxGeometry relative="1" as="geometry">
            <mxPoint x="2074" y="1046" as="targetPoint" />
            <mxPoint x="2044.0000000000018" y="1040" as="sourcePoint" />
          </mxGeometry>
        </mxCell>
        <mxCell id="66mWaM6eEmOpCAhljK_r-166" style="edgeStyle=none;rounded=0;orthogonalLoop=1;jettySize=auto;html=1;exitX=0.983;exitY=0.373;exitDx=0;exitDy=0;dashed=1;endArrow=classicThin;endFill=1;exitPerimeter=0;" parent="1" edge="1">
          <mxGeometry relative="1" as="geometry">
            <mxPoint x="2079" y="1023" as="targetPoint" />
            <mxPoint x="2043.15" y="1033.6500000000005" as="sourcePoint" />
          </mxGeometry>
        </mxCell>
        <mxCell id="66mWaM6eEmOpCAhljK_r-167" style="edgeStyle=none;rounded=0;orthogonalLoop=1;jettySize=auto;html=1;endArrow=baseDash;endFill=0;dashed=1;entryX=-0.021;entryY=0.63;entryDx=0;entryDy=0;entryPerimeter=0;" parent="1" target="66mWaM6eEmOpCAhljK_r-142" edge="1">
          <mxGeometry relative="1" as="geometry">
            <mxPoint x="2234" y="966" as="targetPoint" />
            <mxPoint x="2206" y="968" as="sourcePoint" />
          </mxGeometry>
        </mxCell>
        <mxCell id="66mWaM6eEmOpCAhljK_r-168" style="edgeStyle=none;rounded=0;orthogonalLoop=1;jettySize=auto;html=1;dashed=1;endArrow=classicThin;endFill=1;entryX=0;entryY=0.5;entryDx=0;entryDy=0;" parent="1" target="66mWaM6eEmOpCAhljK_r-142" edge="1">
          <mxGeometry relative="1" as="geometry">
            <mxPoint x="2239" y="943" as="targetPoint" />
            <mxPoint x="2206" y="943" as="sourcePoint" />
          </mxGeometry>
        </mxCell>
        <mxCell id="66mWaM6eEmOpCAhljK_r-169" style="edgeStyle=none;rounded=0;orthogonalLoop=1;jettySize=auto;html=1;endArrow=baseDash;endFill=0;dashed=1;entryX=-0.021;entryY=0.63;entryDx=0;entryDy=0;entryPerimeter=0;" parent="1" edge="1">
          <mxGeometry relative="1" as="geometry">
            <mxPoint x="2230.95" y="905.5" as="targetPoint" />
            <mxPoint x="2206" y="914" as="sourcePoint" />
          </mxGeometry>
        </mxCell>
        <mxCell id="66mWaM6eEmOpCAhljK_r-170" style="edgeStyle=none;rounded=0;orthogonalLoop=1;jettySize=auto;html=1;dashed=1;endArrow=classicThin;endFill=1;entryX=0;entryY=0.5;entryDx=0;entryDy=0;" parent="1" edge="1">
          <mxGeometry relative="1" as="geometry">
            <mxPoint x="2231.999999999998" y="899" as="targetPoint" />
            <mxPoint x="2206" y="889" as="sourcePoint" />
          </mxGeometry>
        </mxCell>
        <mxCell id="66mWaM6eEmOpCAhljK_r-171" style="edgeStyle=none;rounded=0;orthogonalLoop=1;jettySize=auto;html=1;endArrow=baseDash;endFill=0;dashed=1;entryX=-0.021;entryY=0.63;entryDx=0;entryDy=0;entryPerimeter=0;" parent="1" edge="1">
          <mxGeometry relative="1" as="geometry">
            <mxPoint x="2230.95" y="1046.5" as="targetPoint" />
            <mxPoint x="2206" y="1055" as="sourcePoint" />
          </mxGeometry>
        </mxCell>
        <mxCell id="66mWaM6eEmOpCAhljK_r-172" style="edgeStyle=none;rounded=0;orthogonalLoop=1;jettySize=auto;html=1;dashed=1;endArrow=classicThin;endFill=1;entryX=0;entryY=0.5;entryDx=0;entryDy=0;" parent="1" edge="1">
          <mxGeometry relative="1" as="geometry">
            <mxPoint x="2231.999999999998" y="1040" as="targetPoint" />
            <mxPoint x="2206" y="1030" as="sourcePoint" />
          </mxGeometry>
        </mxCell>
        <mxCell id="66mWaM6eEmOpCAhljK_r-173" style="edgeStyle=none;rounded=0;orthogonalLoop=1;jettySize=auto;html=1;endArrow=baseDash;endFill=0;dashed=1;entryX=-0.021;entryY=0.63;entryDx=0;entryDy=0;entryPerimeter=0;" parent="1" edge="1">
          <mxGeometry relative="1" as="geometry">
            <mxPoint x="2230.95" y="822.5" as="targetPoint" />
            <mxPoint x="2206" y="831" as="sourcePoint" />
          </mxGeometry>
        </mxCell>
        <mxCell id="66mWaM6eEmOpCAhljK_r-174" style="edgeStyle=none;rounded=0;orthogonalLoop=1;jettySize=auto;html=1;dashed=1;endArrow=classicThin;endFill=1;entryX=0;entryY=0.5;entryDx=0;entryDy=0;" parent="1" edge="1">
          <mxGeometry relative="1" as="geometry">
            <mxPoint x="2231.999999999998" y="816" as="targetPoint" />
            <mxPoint x="2206" y="806" as="sourcePoint" />
          </mxGeometry>
        </mxCell>
        <mxCell id="66mWaM6eEmOpCAhljK_r-175" value="" style="rounded=1;whiteSpace=wrap;html=1;dashed=1;dashPattern=1 2;fillColor=none;" parent="1" vertex="1">
          <mxGeometry x="2101.8387096774195" y="982.9958006042295" width="22.451612903225808" height="16.314199395770398" as="geometry" />
        </mxCell>
        <mxCell id="66mWaM6eEmOpCAhljK_r-176" style="edgeStyle=none;rounded=0;orthogonalLoop=1;jettySize=auto;html=1;exitX=1;exitY=0.5;exitDx=0;exitDy=0;entryX=0;entryY=1;entryDx=0;entryDy=0;endArrow=classicThin;endFill=1;" parent="1" source="66mWaM6eEmOpCAhljK_r-175" target="66mWaM6eEmOpCAhljK_r-148" edge="1">
          <mxGeometry relative="1" as="geometry">
            <mxPoint x="2123.969315265654" y="957.0375093284846" as="sourcePoint" />
            <mxPoint x="2145.1919750569264" y="942.5093184660773" as="targetPoint" />
          </mxGeometry>
        </mxCell>
        <mxCell id="66mWaM6eEmOpCAhljK_r-177" value="&lt;font style=&quot;font-size: 36px;&quot;&gt;t2&lt;/font&gt;" style="text;html=1;align=center;verticalAlign=middle;resizable=0;points=[];autosize=1;strokeColor=none;fillColor=none;" parent="1" vertex="1">
          <mxGeometry x="2119" y="595" width="50" height="60" as="geometry" />
        </mxCell>
        <mxCell id="66mWaM6eEmOpCAhljK_r-447" style="edgeStyle=none;rounded=0;orthogonalLoop=1;jettySize=auto;html=1;exitX=1;exitY=0;exitDx=0;exitDy=0;fontSize=36;" parent="1" source="66mWaM6eEmOpCAhljK_r-266" target="66mWaM6eEmOpCAhljK_r-90" edge="1">
          <mxGeometry relative="1" as="geometry" />
        </mxCell>
        <mxCell id="66mWaM6eEmOpCAhljK_r-266" value="" style="ellipse;whiteSpace=wrap;html=1;aspect=fixed;fillColor=none;" parent="1" vertex="1">
          <mxGeometry x="1104" y="1169" width="675" height="675" as="geometry" />
        </mxCell>
        <mxCell id="66mWaM6eEmOpCAhljK_r-267" value="" style="rounded=0;whiteSpace=wrap;html=1;fillColor=none;dashed=1;dashPattern=1 2;" parent="1" vertex="1">
          <mxGeometry x="1533" y="1372" width="50" height="290" as="geometry" />
        </mxCell>
        <mxCell id="66mWaM6eEmOpCAhljK_r-268" value="" style="rounded=0;whiteSpace=wrap;html=1;fillColor=none;dashed=1;dashPattern=1 2;" parent="1" vertex="1">
          <mxGeometry x="1294" y="1372" width="50" height="290" as="geometry" />
        </mxCell>
        <mxCell id="66mWaM6eEmOpCAhljK_r-269" value="" style="rounded=0;whiteSpace=wrap;html=1;fillColor=none;dashed=1;dashPattern=1 2;" parent="1" vertex="1">
          <mxGeometry x="1163" y="1334" width="560" height="350" as="geometry" />
        </mxCell>
        <mxCell id="66mWaM6eEmOpCAhljK_r-270" value="" style="rounded=0;whiteSpace=wrap;html=1;fillColor=none;dashed=1;dashPattern=1 2;" parent="1" vertex="1">
          <mxGeometry x="1283" y="1354" width="310" height="320" as="geometry" />
        </mxCell>
        <mxCell id="66mWaM6eEmOpCAhljK_r-271" value="" style="rounded=0;whiteSpace=wrap;html=1;fillColor=none;dashed=1;dashPattern=1 2;" parent="1" vertex="1">
          <mxGeometry x="1642" y="1372" width="70" height="290" as="geometry" />
        </mxCell>
        <mxCell id="66mWaM6eEmOpCAhljK_r-272" value="" style="rounded=0;whiteSpace=wrap;html=1;fillColor=none;dashed=1;dashPattern=1 2;" parent="1" vertex="1">
          <mxGeometry x="1174" y="1372" width="70" height="290" as="geometry" />
        </mxCell>
        <mxCell id="66mWaM6eEmOpCAhljK_r-275" style="edgeStyle=none;rounded=0;orthogonalLoop=1;jettySize=auto;html=1;exitX=1;exitY=1;exitDx=0;exitDy=0;entryX=0;entryY=0;entryDx=0;entryDy=0;" parent="1" source="66mWaM6eEmOpCAhljK_r-276" target="66mWaM6eEmOpCAhljK_r-288" edge="1">
          <mxGeometry relative="1" as="geometry" />
        </mxCell>
        <mxCell id="66mWaM6eEmOpCAhljK_r-276" value="v&lt;sub&gt;t2&lt;span style=&quot;font-size: 10px;&quot;&gt;→t3&lt;/span&gt;&lt;/sub&gt;" style="ellipse;whiteSpace=wrap;html=1;aspect=fixed;fillColor=none;dashed=1;" parent="1" vertex="1">
          <mxGeometry x="1184" y="1492" width="50" height="50" as="geometry" />
        </mxCell>
        <mxCell id="66mWaM6eEmOpCAhljK_r-277" value="r&lt;sub&gt;i&lt;/sub&gt;" style="ellipse;whiteSpace=wrap;html=1;aspect=fixed;fillColor=none;" parent="1" vertex="1">
          <mxGeometry x="1294" y="1464" width="50" height="50" as="geometry" />
        </mxCell>
        <mxCell id="66mWaM6eEmOpCAhljK_r-278" value="v&lt;sub&gt;t2&lt;span style=&quot;font-size: 10px;&quot;&gt;←t3&lt;/span&gt;&lt;/sub&gt;" style="ellipse;whiteSpace=wrap;html=1;aspect=fixed;fillColor=none;dashed=1;" parent="1" vertex="1">
          <mxGeometry x="1653" y="1492" width="50" height="50" as="geometry" />
        </mxCell>
        <mxCell id="66mWaM6eEmOpCAhljK_r-280" style="edgeStyle=none;rounded=0;orthogonalLoop=1;jettySize=auto;html=1;exitX=1;exitY=1;exitDx=0;exitDy=0;entryX=0;entryY=0;entryDx=0;entryDy=0;" parent="1" source="66mWaM6eEmOpCAhljK_r-281" target="66mWaM6eEmOpCAhljK_r-293" edge="1">
          <mxGeometry relative="1" as="geometry" />
        </mxCell>
        <mxCell id="66mWaM6eEmOpCAhljK_r-281" value="l&lt;sub&gt;k&lt;/sub&gt;" style="ellipse;whiteSpace=wrap;html=1;aspect=fixed;fillColor=none;" parent="1" vertex="1">
          <mxGeometry x="1533" y="1464" width="50" height="50" as="geometry" />
        </mxCell>
        <mxCell id="66mWaM6eEmOpCAhljK_r-284" value="&lt;span style=&quot;font-size: 12px;&quot;&gt;v&lt;/span&gt;&lt;sub&gt;t1&lt;span style=&quot;font-size: 10px;&quot;&gt;→t3&lt;/span&gt;&lt;/sub&gt;" style="ellipse;whiteSpace=wrap;html=1;aspect=fixed;fillColor=none;dashed=1;" parent="1" vertex="1">
          <mxGeometry x="1184" y="1381" width="50" height="50" as="geometry" />
        </mxCell>
        <mxCell id="66mWaM6eEmOpCAhljK_r-285" value="r&lt;sub&gt;1&lt;/sub&gt;" style="ellipse;whiteSpace=wrap;html=1;aspect=fixed;fillColor=none;" parent="1" vertex="1">
          <mxGeometry x="1294" y="1381" width="50" height="50" as="geometry" />
        </mxCell>
        <mxCell id="66mWaM6eEmOpCAhljK_r-286" style="rounded=0;orthogonalLoop=1;jettySize=auto;html=1;exitX=1;exitY=0.5;exitDx=0;exitDy=0;entryX=0;entryY=0.5;entryDx=0;entryDy=0;" parent="1" source="66mWaM6eEmOpCAhljK_r-287" target="66mWaM6eEmOpCAhljK_r-288" edge="1">
          <mxGeometry relative="1" as="geometry" />
        </mxCell>
        <mxCell id="66mWaM6eEmOpCAhljK_r-454" style="edgeStyle=none;rounded=0;orthogonalLoop=1;jettySize=auto;html=1;exitX=1;exitY=0;exitDx=0;exitDy=0;entryX=0;entryY=1;entryDx=0;entryDy=0;fontSize=36;startArrow=none;startFill=0;endArrow=classic;endFill=1;" parent="1" source="66mWaM6eEmOpCAhljK_r-287" target="66mWaM6eEmOpCAhljK_r-308" edge="1">
          <mxGeometry relative="1" as="geometry" />
        </mxCell>
        <mxCell id="66mWaM6eEmOpCAhljK_r-287" value="v&lt;sub&gt;t0&lt;span style=&quot;font-size: 10px;&quot;&gt;→t3&lt;/span&gt;&lt;/sub&gt;" style="ellipse;whiteSpace=wrap;html=1;aspect=fixed;fillColor=none;dashed=1;" parent="1" vertex="1">
          <mxGeometry x="1184" y="1603" width="50" height="50" as="geometry" />
        </mxCell>
        <mxCell id="66mWaM6eEmOpCAhljK_r-288" value="r&lt;span style=&quot;font-size: 10px;&quot;&gt;&lt;sub&gt;j&lt;/sub&gt;&lt;/span&gt;" style="ellipse;whiteSpace=wrap;html=1;aspect=fixed;fillColor=none;" parent="1" vertex="1">
          <mxGeometry x="1294" y="1603" width="50" height="50" as="geometry" />
        </mxCell>
        <mxCell id="66mWaM6eEmOpCAhljK_r-289" value="v&lt;sub&gt;t1&lt;span style=&quot;font-size: 10px;&quot;&gt;←t3&lt;/span&gt;&lt;/sub&gt;" style="ellipse;whiteSpace=wrap;html=1;aspect=fixed;fillColor=none;dashed=1;" parent="1" vertex="1">
          <mxGeometry x="1653" y="1381" width="50" height="50" as="geometry" />
        </mxCell>
        <mxCell id="66mWaM6eEmOpCAhljK_r-292" value="l&lt;sub&gt;1&lt;/sub&gt;" style="ellipse;whiteSpace=wrap;html=1;aspect=fixed;fillColor=none;" parent="1" vertex="1">
          <mxGeometry x="1533" y="1381" width="50" height="50" as="geometry" />
        </mxCell>
        <mxCell id="66mWaM6eEmOpCAhljK_r-293" value="v&lt;sub&gt;t0&lt;span style=&quot;font-size: 10px;&quot;&gt;←t3&lt;/span&gt;&lt;/sub&gt;" style="ellipse;whiteSpace=wrap;html=1;aspect=fixed;fillColor=none;dashed=1;" parent="1" vertex="1">
          <mxGeometry x="1653" y="1603" width="50" height="50" as="geometry" />
        </mxCell>
        <mxCell id="66mWaM6eEmOpCAhljK_r-295" style="edgeStyle=none;rounded=0;orthogonalLoop=1;jettySize=auto;html=1;exitX=1;exitY=0;exitDx=0;exitDy=0;entryX=0;entryY=1;entryDx=0;entryDy=0;" parent="1" source="66mWaM6eEmOpCAhljK_r-296" target="66mWaM6eEmOpCAhljK_r-278" edge="1">
          <mxGeometry relative="1" as="geometry" />
        </mxCell>
        <mxCell id="66mWaM6eEmOpCAhljK_r-296" value="l&lt;sub&gt;d&lt;/sub&gt;" style="ellipse;whiteSpace=wrap;html=1;aspect=fixed;fillColor=none;" parent="1" vertex="1">
          <mxGeometry x="1533" y="1603" width="50" height="50" as="geometry" />
        </mxCell>
        <mxCell id="66mWaM6eEmOpCAhljK_r-297" value="V&lt;sub&gt;in&lt;/sub&gt;(t3)" style="text;html=1;align=center;verticalAlign=middle;resizable=0;points=[];autosize=1;strokeColor=none;fillColor=none;" parent="1" vertex="1">
          <mxGeometry x="1174" y="1347" width="60" height="30" as="geometry" />
        </mxCell>
        <mxCell id="66mWaM6eEmOpCAhljK_r-298" value="V&lt;span style=&quot;font-size: 10px;&quot;&gt;&lt;sub&gt;out&lt;/sub&gt;&lt;/span&gt;(t3)" style="text;html=1;align=center;verticalAlign=middle;resizable=0;points=[];autosize=1;strokeColor=none;fillColor=none;" parent="1" vertex="1">
          <mxGeometry x="1642" y="1347" width="60" height="30" as="geometry" />
        </mxCell>
        <mxCell id="66mWaM6eEmOpCAhljK_r-299" value="M(t3)" style="text;html=1;align=center;verticalAlign=middle;resizable=0;points=[];autosize=1;strokeColor=none;fillColor=none;rotation=0;" parent="1" vertex="1">
          <mxGeometry x="1409" y="1329" width="50" height="30" as="geometry" />
        </mxCell>
        <mxCell id="66mWaM6eEmOpCAhljK_r-300" value="E&lt;sub&gt;in&lt;/sub&gt;(t3)" style="text;html=1;align=center;verticalAlign=middle;resizable=0;points=[];autosize=1;strokeColor=none;fillColor=none;" parent="1" vertex="1">
          <mxGeometry x="1234" y="1357" width="60" height="30" as="geometry" />
        </mxCell>
        <mxCell id="66mWaM6eEmOpCAhljK_r-301" value="E&lt;sub&gt;out&lt;/sub&gt;(t3)" style="text;html=1;align=center;verticalAlign=middle;resizable=0;points=[];autosize=1;strokeColor=none;fillColor=none;" parent="1" vertex="1">
          <mxGeometry x="1586" y="1357" width="60" height="30" as="geometry" />
        </mxCell>
        <mxCell id="66mWaM6eEmOpCAhljK_r-302" value="M&lt;sup&gt;*&lt;/sup&gt;(t3)" style="text;html=1;align=center;verticalAlign=middle;resizable=0;points=[];autosize=1;strokeColor=none;fillColor=none;" parent="1" vertex="1">
          <mxGeometry x="1404" y="1304" width="60" height="30" as="geometry" />
        </mxCell>
        <mxCell id="66mWaM6eEmOpCAhljK_r-303" value="" style="rounded=0;whiteSpace=wrap;html=1;fillColor=none;dashed=1;dashPattern=1 2;" parent="1" vertex="1">
          <mxGeometry x="1254" y="1382" width="20" height="260" as="geometry" />
        </mxCell>
        <mxCell id="66mWaM6eEmOpCAhljK_r-304" value="" style="rounded=0;whiteSpace=wrap;html=1;fillColor=none;dashed=1;dashPattern=1 2;" parent="1" vertex="1">
          <mxGeometry x="1603" y="1382" width="30" height="260" as="geometry" />
        </mxCell>
        <mxCell id="66mWaM6eEmOpCAhljK_r-305" value="" style="ellipse;whiteSpace=wrap;html=1;aspect=fixed;fillColor=#000000;rotation=90;" parent="1" vertex="1">
          <mxGeometry x="1315" y="1433" width="7" height="7" as="geometry" />
        </mxCell>
        <mxCell id="66mWaM6eEmOpCAhljK_r-306" value="" style="ellipse;whiteSpace=wrap;html=1;aspect=fixed;fillColor=#000000;rotation=90;" parent="1" vertex="1">
          <mxGeometry x="1315" y="1444" width="7" height="7" as="geometry" />
        </mxCell>
        <mxCell id="66mWaM6eEmOpCAhljK_r-307" value="" style="ellipse;whiteSpace=wrap;html=1;aspect=fixed;fillColor=#000000;rotation=90;" parent="1" vertex="1">
          <mxGeometry x="1315" y="1455" width="7" height="7" as="geometry" />
        </mxCell>
        <mxCell id="66mWaM6eEmOpCAhljK_r-308" value="r&lt;sub&gt;i+1&lt;/sub&gt;" style="ellipse;whiteSpace=wrap;html=1;aspect=fixed;fillColor=none;" parent="1" vertex="1">
          <mxGeometry x="1294" y="1518" width="50" height="50" as="geometry" />
        </mxCell>
        <mxCell id="66mWaM6eEmOpCAhljK_r-309" value="" style="ellipse;whiteSpace=wrap;html=1;aspect=fixed;fillColor=#000000;rotation=90;" parent="1" vertex="1">
          <mxGeometry x="1315" y="1571" width="7" height="7" as="geometry" />
        </mxCell>
        <mxCell id="66mWaM6eEmOpCAhljK_r-310" value="" style="ellipse;whiteSpace=wrap;html=1;aspect=fixed;fillColor=#000000;rotation=90;" parent="1" vertex="1">
          <mxGeometry x="1315" y="1582" width="7" height="7" as="geometry" />
        </mxCell>
        <mxCell id="66mWaM6eEmOpCAhljK_r-311" value="" style="ellipse;whiteSpace=wrap;html=1;aspect=fixed;fillColor=#000000;rotation=90;" parent="1" vertex="1">
          <mxGeometry x="1315" y="1593" width="7" height="7" as="geometry" />
        </mxCell>
        <mxCell id="66mWaM6eEmOpCAhljK_r-312" value="" style="ellipse;whiteSpace=wrap;html=1;aspect=fixed;fillColor=#000000;rotation=90;" parent="1" vertex="1">
          <mxGeometry x="1555" y="1433" width="7" height="7" as="geometry" />
        </mxCell>
        <mxCell id="66mWaM6eEmOpCAhljK_r-313" value="" style="ellipse;whiteSpace=wrap;html=1;aspect=fixed;fillColor=#000000;rotation=90;" parent="1" vertex="1">
          <mxGeometry x="1555" y="1444" width="7" height="7" as="geometry" />
        </mxCell>
        <mxCell id="66mWaM6eEmOpCAhljK_r-314" value="" style="ellipse;whiteSpace=wrap;html=1;aspect=fixed;fillColor=#000000;rotation=90;" parent="1" vertex="1">
          <mxGeometry x="1555" y="1455" width="7" height="7" as="geometry" />
        </mxCell>
        <mxCell id="66mWaM6eEmOpCAhljK_r-315" value="" style="ellipse;whiteSpace=wrap;html=1;aspect=fixed;fillColor=#000000;rotation=90;" parent="1" vertex="1">
          <mxGeometry x="1555" y="1571" width="7" height="7" as="geometry" />
        </mxCell>
        <mxCell id="66mWaM6eEmOpCAhljK_r-316" value="" style="ellipse;whiteSpace=wrap;html=1;aspect=fixed;fillColor=#000000;rotation=90;" parent="1" vertex="1">
          <mxGeometry x="1555" y="1582" width="7" height="7" as="geometry" />
        </mxCell>
        <mxCell id="66mWaM6eEmOpCAhljK_r-317" value="" style="ellipse;whiteSpace=wrap;html=1;aspect=fixed;fillColor=#000000;rotation=90;" parent="1" vertex="1">
          <mxGeometry x="1555" y="1593" width="7" height="7" as="geometry" />
        </mxCell>
        <mxCell id="66mWaM6eEmOpCAhljK_r-318" value="l&lt;sub&gt;k+1&lt;/sub&gt;" style="ellipse;whiteSpace=wrap;html=1;aspect=fixed;fillColor=none;" parent="1" vertex="1">
          <mxGeometry x="1533" y="1517" width="50" height="50" as="geometry" />
        </mxCell>
        <mxCell id="66mWaM6eEmOpCAhljK_r-319" value="Receptors(t)" style="text;html=1;align=center;verticalAlign=middle;resizable=0;points=[];autosize=1;strokeColor=none;fillColor=none;" parent="1" vertex="1">
          <mxGeometry x="1282" y="1348" width="90" height="30" as="geometry" />
        </mxCell>
        <mxCell id="66mWaM6eEmOpCAhljK_r-320" value="Ligands(t)" style="text;html=1;align=center;verticalAlign=middle;resizable=0;points=[];autosize=1;strokeColor=none;fillColor=none;" parent="1" vertex="1">
          <mxGeometry x="1513" y="1347" width="80" height="30" as="geometry" />
        </mxCell>
        <mxCell id="66mWaM6eEmOpCAhljK_r-321" value="" style="group;dashed=1;dashPattern=1 2;fillColor=none;" parent="1" vertex="1" connectable="0">
          <mxGeometry x="1386" y="1464" width="116" height="90" as="geometry" />
        </mxCell>
        <mxCell id="66mWaM6eEmOpCAhljK_r-322" style="edgeStyle=none;rounded=0;orthogonalLoop=1;jettySize=auto;html=1;exitX=0.65;exitY=1.017;exitDx=0;exitDy=0;endArrow=baseDash;endFill=0;exitPerimeter=0;" parent="66mWaM6eEmOpCAhljK_r-321" source="66mWaM6eEmOpCAhljK_r-334" edge="1">
          <mxGeometry relative="1" as="geometry">
            <mxPoint x="87" y="38" as="targetPoint" />
            <mxPoint x="76.70967741935482" y="38.06646525679757" as="sourcePoint" />
          </mxGeometry>
        </mxCell>
        <mxCell id="66mWaM6eEmOpCAhljK_r-323" value="" style="rounded=1;whiteSpace=wrap;html=1;dashed=1;dashPattern=1 2;fillColor=none;" parent="66mWaM6eEmOpCAhljK_r-321" vertex="1">
          <mxGeometry x="96.99838709677418" y="-12.002567975830821" width="22.451612903225808" height="16.314199395770398" as="geometry" />
        </mxCell>
        <mxCell id="66mWaM6eEmOpCAhljK_r-324" value="" style="rounded=1;whiteSpace=wrap;html=1;dashed=1;dashPattern=1 2;fillColor=none;" parent="66mWaM6eEmOpCAhljK_r-321" vertex="1">
          <mxGeometry x="55.00645161290322" y="66.66163141993957" width="22.451612903225808" height="16.314199395770398" as="geometry" />
        </mxCell>
        <mxCell id="66mWaM6eEmOpCAhljK_r-325" style="edgeStyle=none;rounded=0;orthogonalLoop=1;jettySize=auto;html=1;exitX=1;exitY=0.25;exitDx=0;exitDy=0;entryX=0.25;entryY=1;entryDx=0;entryDy=0;endArrow=classicThin;endFill=1;" parent="66mWaM6eEmOpCAhljK_r-321" source="66mWaM6eEmOpCAhljK_r-324" target="66mWaM6eEmOpCAhljK_r-323" edge="1">
          <mxGeometry relative="1" as="geometry">
            <mxPoint x="72.96774193548384" y="59.81873111782477" as="sourcePoint" />
            <mxPoint x="92.42580645161291" y="43.24350453172204" as="targetPoint" />
          </mxGeometry>
        </mxCell>
        <mxCell id="66mWaM6eEmOpCAhljK_r-326" value="" style="rounded=1;whiteSpace=wrap;html=1;dashed=1;dashPattern=1 2;fillColor=none;" parent="66mWaM6eEmOpCAhljK_r-321" vertex="1">
          <mxGeometry x="20.58064516129032" y="29.909365558912384" width="22.451612903225808" height="16.314199395770398" as="geometry" />
        </mxCell>
        <mxCell id="66mWaM6eEmOpCAhljK_r-327" style="rounded=0;orthogonalLoop=1;jettySize=auto;html=1;exitX=1;exitY=0.633;exitDx=0;exitDy=0;entryX=0;entryY=0;entryDx=0;entryDy=0;endArrow=baseDash;endFill=0;exitPerimeter=0;" parent="66mWaM6eEmOpCAhljK_r-321" source="66mWaM6eEmOpCAhljK_r-326" target="66mWaM6eEmOpCAhljK_r-324" edge="1">
          <mxGeometry relative="1" as="geometry">
            <mxPoint x="58" y="54.380664652567965" as="targetPoint" />
            <mxPoint x="42.71125074952516" y="40.31898613979332" as="sourcePoint" />
          </mxGeometry>
        </mxCell>
        <mxCell id="66mWaM6eEmOpCAhljK_r-328" style="rounded=0;orthogonalLoop=1;jettySize=auto;html=1;entryX=0;entryY=0;entryDx=0;entryDy=0;endArrow=baseDash;endFill=0;dashed=1;" parent="66mWaM6eEmOpCAhljK_r-321" target="66mWaM6eEmOpCAhljK_r-334" edge="1">
          <mxGeometry relative="1" as="geometry">
            <mxPoint x="56.87741935483871" y="54.380664652567965" as="targetPoint" />
            <mxPoint x="17" y="-32" as="sourcePoint" />
          </mxGeometry>
        </mxCell>
        <mxCell id="66mWaM6eEmOpCAhljK_r-329" style="rounded=0;orthogonalLoop=1;jettySize=auto;html=1;entryX=0;entryY=0;entryDx=0;entryDy=0;endArrow=baseDash;endFill=0;dashed=1;" parent="66mWaM6eEmOpCAhljK_r-321" target="66mWaM6eEmOpCAhljK_r-326" edge="1">
          <mxGeometry relative="1" as="geometry">
            <mxPoint x="63.61290322580645" y="24.471299093655578" as="targetPoint" />
            <mxPoint x="7.483870967741933" y="13.595166163141991" as="sourcePoint" />
          </mxGeometry>
        </mxCell>
        <mxCell id="66mWaM6eEmOpCAhljK_r-330" style="rounded=0;orthogonalLoop=1;jettySize=auto;html=1;endArrow=baseDash;endFill=0;dashed=1;entryX=-0.033;entryY=0.9;entryDx=0;entryDy=0;entryPerimeter=0;" parent="66mWaM6eEmOpCAhljK_r-321" target="66mWaM6eEmOpCAhljK_r-351" edge="1">
          <mxGeometry relative="1" as="geometry">
            <mxPoint x="14.967741935483867" y="84.29003021148034" as="targetPoint" />
            <mxPoint x="-3" y="128" as="sourcePoint" />
          </mxGeometry>
        </mxCell>
        <mxCell id="66mWaM6eEmOpCAhljK_r-331" style="edgeStyle=none;rounded=0;orthogonalLoop=1;jettySize=auto;html=1;exitX=1;exitY=0.5;exitDx=0;exitDy=0;entryX=0;entryY=1;entryDx=0;entryDy=0;endArrow=classicThin;endFill=1;dashed=1;" parent="66mWaM6eEmOpCAhljK_r-321" edge="1">
          <mxGeometry relative="1" as="geometry">
            <mxPoint x="4.864516129032258" y="59.81873111782477" as="sourcePoint" />
            <mxPoint x="20.58064516129032" y="46.223564954682786" as="targetPoint" />
          </mxGeometry>
        </mxCell>
        <mxCell id="66mWaM6eEmOpCAhljK_r-332" style="edgeStyle=none;rounded=0;orthogonalLoop=1;jettySize=auto;html=1;entryX=0;entryY=0;entryDx=0;entryDy=0;endArrow=classicThin;endFill=1;dashed=1;" parent="66mWaM6eEmOpCAhljK_r-321" target="66mWaM6eEmOpCAhljK_r-351" edge="1">
          <mxGeometry relative="1" as="geometry">
            <mxPoint x="-3" y="98" as="sourcePoint" />
            <mxPoint x="16.838709677419352" y="74.77341389728095" as="targetPoint" />
          </mxGeometry>
        </mxCell>
        <mxCell id="66mWaM6eEmOpCAhljK_r-333" style="edgeStyle=none;rounded=0;orthogonalLoop=1;jettySize=auto;html=1;entryX=0.45;entryY=-0.017;entryDx=0;entryDy=0;endArrow=classicThin;endFill=1;dashed=1;entryPerimeter=0;" parent="66mWaM6eEmOpCAhljK_r-321" target="66mWaM6eEmOpCAhljK_r-334" edge="1">
          <mxGeometry relative="1" as="geometry">
            <mxPoint x="37" y="-42" as="sourcePoint" />
            <mxPoint x="18.709677419354836" y="77.49244712990935" as="targetPoint" />
          </mxGeometry>
        </mxCell>
        <mxCell id="66mWaM6eEmOpCAhljK_r-334" value="" style="rounded=1;whiteSpace=wrap;html=1;dashed=1;dashPattern=1 2;fillColor=none;" parent="66mWaM6eEmOpCAhljK_r-321" vertex="1">
          <mxGeometry x="32.55193548387092" y="-1.9977341389728167" width="22.451612903225808" height="16.314199395770398" as="geometry" />
        </mxCell>
        <mxCell id="66mWaM6eEmOpCAhljK_r-335" style="edgeStyle=none;rounded=0;orthogonalLoop=1;jettySize=auto;html=1;endArrow=baseDash;endFill=0;dashed=1;exitX=1;exitY=0.5;exitDx=0;exitDy=0;" parent="1" source="66mWaM6eEmOpCAhljK_r-285" edge="1">
          <mxGeometry relative="1" as="geometry">
            <mxPoint x="1374" y="1412" as="targetPoint" />
            <mxPoint x="1354" y="1412" as="sourcePoint" />
          </mxGeometry>
        </mxCell>
        <mxCell id="66mWaM6eEmOpCAhljK_r-336" style="edgeStyle=none;rounded=0;orthogonalLoop=1;jettySize=auto;html=1;exitX=0.983;exitY=0.373;exitDx=0;exitDy=0;dashed=1;endArrow=classicThin;endFill=1;exitPerimeter=0;" parent="1" source="66mWaM6eEmOpCAhljK_r-285" edge="1">
          <mxGeometry relative="1" as="geometry">
            <mxPoint x="1379" y="1389" as="targetPoint" />
            <mxPoint x="1347" y="1399.4225" as="sourcePoint" />
          </mxGeometry>
        </mxCell>
        <mxCell id="66mWaM6eEmOpCAhljK_r-337" style="edgeStyle=none;rounded=0;orthogonalLoop=1;jettySize=auto;html=1;endArrow=baseDash;endFill=0;dashed=1;exitX=1;exitY=0.5;exitDx=0;exitDy=0;" parent="1" edge="1">
          <mxGeometry relative="1" as="geometry">
            <mxPoint x="1374" y="1495" as="targetPoint" />
            <mxPoint x="1344.0000000000018" y="1489" as="sourcePoint" />
          </mxGeometry>
        </mxCell>
        <mxCell id="66mWaM6eEmOpCAhljK_r-338" style="edgeStyle=none;rounded=0;orthogonalLoop=1;jettySize=auto;html=1;exitX=0.983;exitY=0.373;exitDx=0;exitDy=0;dashed=1;endArrow=classicThin;endFill=1;exitPerimeter=0;" parent="1" edge="1">
          <mxGeometry relative="1" as="geometry">
            <mxPoint x="1379" y="1472" as="targetPoint" />
            <mxPoint x="1343.1499999999996" y="1482.6500000000005" as="sourcePoint" />
          </mxGeometry>
        </mxCell>
        <mxCell id="66mWaM6eEmOpCAhljK_r-339" style="edgeStyle=none;rounded=0;orthogonalLoop=1;jettySize=auto;html=1;endArrow=baseDash;endFill=0;dashed=1;exitX=1;exitY=0.5;exitDx=0;exitDy=0;" parent="1" edge="1">
          <mxGeometry relative="1" as="geometry">
            <mxPoint x="1375" y="1550" as="targetPoint" />
            <mxPoint x="1345.0000000000018" y="1544" as="sourcePoint" />
          </mxGeometry>
        </mxCell>
        <mxCell id="66mWaM6eEmOpCAhljK_r-340" style="edgeStyle=none;rounded=0;orthogonalLoop=1;jettySize=auto;html=1;exitX=0.983;exitY=0.373;exitDx=0;exitDy=0;dashed=1;endArrow=classicThin;endFill=1;exitPerimeter=0;" parent="1" edge="1">
          <mxGeometry relative="1" as="geometry">
            <mxPoint x="1380" y="1527" as="targetPoint" />
            <mxPoint x="1344.1499999999996" y="1537.6500000000005" as="sourcePoint" />
          </mxGeometry>
        </mxCell>
        <mxCell id="66mWaM6eEmOpCAhljK_r-341" style="edgeStyle=none;rounded=0;orthogonalLoop=1;jettySize=auto;html=1;endArrow=baseDash;endFill=0;dashed=1;exitX=1;exitY=0.5;exitDx=0;exitDy=0;" parent="1" edge="1">
          <mxGeometry relative="1" as="geometry">
            <mxPoint x="1375" y="1635" as="targetPoint" />
            <mxPoint x="1345.0000000000018" y="1629" as="sourcePoint" />
          </mxGeometry>
        </mxCell>
        <mxCell id="66mWaM6eEmOpCAhljK_r-342" style="edgeStyle=none;rounded=0;orthogonalLoop=1;jettySize=auto;html=1;exitX=0.983;exitY=0.373;exitDx=0;exitDy=0;dashed=1;endArrow=classicThin;endFill=1;exitPerimeter=0;" parent="1" edge="1">
          <mxGeometry relative="1" as="geometry">
            <mxPoint x="1380" y="1612" as="targetPoint" />
            <mxPoint x="1344.1499999999996" y="1622.6500000000005" as="sourcePoint" />
          </mxGeometry>
        </mxCell>
        <mxCell id="66mWaM6eEmOpCAhljK_r-343" style="edgeStyle=none;rounded=0;orthogonalLoop=1;jettySize=auto;html=1;endArrow=baseDash;endFill=0;dashed=1;entryX=-0.021;entryY=0.63;entryDx=0;entryDy=0;entryPerimeter=0;" parent="1" target="66mWaM6eEmOpCAhljK_r-318" edge="1">
          <mxGeometry relative="1" as="geometry">
            <mxPoint x="1535" y="1555" as="targetPoint" />
            <mxPoint x="1507" y="1557" as="sourcePoint" />
          </mxGeometry>
        </mxCell>
        <mxCell id="66mWaM6eEmOpCAhljK_r-344" style="edgeStyle=none;rounded=0;orthogonalLoop=1;jettySize=auto;html=1;dashed=1;endArrow=classicThin;endFill=1;entryX=0;entryY=0.5;entryDx=0;entryDy=0;" parent="1" target="66mWaM6eEmOpCAhljK_r-318" edge="1">
          <mxGeometry relative="1" as="geometry">
            <mxPoint x="1540" y="1532" as="targetPoint" />
            <mxPoint x="1507" y="1532" as="sourcePoint" />
          </mxGeometry>
        </mxCell>
        <mxCell id="66mWaM6eEmOpCAhljK_r-345" style="edgeStyle=none;rounded=0;orthogonalLoop=1;jettySize=auto;html=1;endArrow=baseDash;endFill=0;dashed=1;entryX=-0.021;entryY=0.63;entryDx=0;entryDy=0;entryPerimeter=0;" parent="1" edge="1">
          <mxGeometry relative="1" as="geometry">
            <mxPoint x="1531.9499999999998" y="1494.5" as="targetPoint" />
            <mxPoint x="1507" y="1502.9999999999995" as="sourcePoint" />
          </mxGeometry>
        </mxCell>
        <mxCell id="66mWaM6eEmOpCAhljK_r-346" style="edgeStyle=none;rounded=0;orthogonalLoop=1;jettySize=auto;html=1;dashed=1;endArrow=classicThin;endFill=1;entryX=0;entryY=0.5;entryDx=0;entryDy=0;" parent="1" edge="1">
          <mxGeometry relative="1" as="geometry">
            <mxPoint x="1532.9999999999982" y="1487.9999999999995" as="targetPoint" />
            <mxPoint x="1507" y="1477.9999999999995" as="sourcePoint" />
          </mxGeometry>
        </mxCell>
        <mxCell id="66mWaM6eEmOpCAhljK_r-347" style="edgeStyle=none;rounded=0;orthogonalLoop=1;jettySize=auto;html=1;endArrow=baseDash;endFill=0;dashed=1;entryX=-0.021;entryY=0.63;entryDx=0;entryDy=0;entryPerimeter=0;" parent="1" edge="1">
          <mxGeometry relative="1" as="geometry">
            <mxPoint x="1531.9499999999998" y="1635.4999999999995" as="targetPoint" />
            <mxPoint x="1507" y="1644" as="sourcePoint" />
          </mxGeometry>
        </mxCell>
        <mxCell id="66mWaM6eEmOpCAhljK_r-348" style="edgeStyle=none;rounded=0;orthogonalLoop=1;jettySize=auto;html=1;dashed=1;endArrow=classicThin;endFill=1;entryX=0;entryY=0.5;entryDx=0;entryDy=0;" parent="1" edge="1">
          <mxGeometry relative="1" as="geometry">
            <mxPoint x="1532.9999999999982" y="1629" as="targetPoint" />
            <mxPoint x="1507" y="1619" as="sourcePoint" />
          </mxGeometry>
        </mxCell>
        <mxCell id="66mWaM6eEmOpCAhljK_r-349" style="edgeStyle=none;rounded=0;orthogonalLoop=1;jettySize=auto;html=1;endArrow=baseDash;endFill=0;dashed=1;entryX=-0.021;entryY=0.63;entryDx=0;entryDy=0;entryPerimeter=0;" parent="1" edge="1">
          <mxGeometry relative="1" as="geometry">
            <mxPoint x="1531.9499999999998" y="1411.5" as="targetPoint" />
            <mxPoint x="1507" y="1420" as="sourcePoint" />
          </mxGeometry>
        </mxCell>
        <mxCell id="66mWaM6eEmOpCAhljK_r-350" style="edgeStyle=none;rounded=0;orthogonalLoop=1;jettySize=auto;html=1;dashed=1;endArrow=classicThin;endFill=1;entryX=0;entryY=0.5;entryDx=0;entryDy=0;" parent="1" edge="1">
          <mxGeometry relative="1" as="geometry">
            <mxPoint x="1532.9999999999982" y="1405" as="targetPoint" />
            <mxPoint x="1507" y="1395" as="sourcePoint" />
          </mxGeometry>
        </mxCell>
        <mxCell id="66mWaM6eEmOpCAhljK_r-351" value="" style="rounded=1;whiteSpace=wrap;html=1;dashed=1;dashPattern=1 2;fillColor=none;" parent="1" vertex="1">
          <mxGeometry x="1402.8387096774193" y="1571.9958006042295" width="22.451612903225808" height="16.314199395770398" as="geometry" />
        </mxCell>
        <mxCell id="66mWaM6eEmOpCAhljK_r-352" style="edgeStyle=none;rounded=0;orthogonalLoop=1;jettySize=auto;html=1;exitX=1;exitY=0.5;exitDx=0;exitDy=0;entryX=0;entryY=1;entryDx=0;entryDy=0;endArrow=classicThin;endFill=1;" parent="1" source="66mWaM6eEmOpCAhljK_r-351" target="66mWaM6eEmOpCAhljK_r-324" edge="1">
          <mxGeometry relative="1" as="geometry">
            <mxPoint x="1424.9693152656541" y="1546.0375093284847" as="sourcePoint" />
            <mxPoint x="1446.1919750569264" y="1531.5093184660773" as="targetPoint" />
          </mxGeometry>
        </mxCell>
        <mxCell id="66mWaM6eEmOpCAhljK_r-353" value="&lt;font style=&quot;font-size: 36px;&quot;&gt;t3&lt;/font&gt;" style="text;html=1;align=center;verticalAlign=middle;resizable=0;points=[];autosize=1;strokeColor=none;fillColor=none;" parent="1" vertex="1">
          <mxGeometry x="1420" y="1184" width="50" height="60" as="geometry" />
        </mxCell>
        <mxCell id="66mWaM6eEmOpCAhljK_r-449" style="edgeStyle=none;rounded=0;orthogonalLoop=1;jettySize=auto;html=1;exitX=0;exitY=1;exitDx=0;exitDy=0;fontSize=36;" parent="1" source="66mWaM6eEmOpCAhljK_r-354" target="Lb5HWGm_DYKcfEpjaOFK-197" edge="1">
          <mxGeometry relative="1" as="geometry" />
        </mxCell>
        <mxCell id="66mWaM6eEmOpCAhljK_r-354" value="" style="ellipse;whiteSpace=wrap;html=1;aspect=fixed;fillColor=none;" parent="1" vertex="1">
          <mxGeometry x="1105" y="21" width="675" height="675" as="geometry" />
        </mxCell>
        <mxCell id="66mWaM6eEmOpCAhljK_r-355" value="" style="rounded=0;whiteSpace=wrap;html=1;fillColor=none;dashed=1;dashPattern=1 2;" parent="1" vertex="1">
          <mxGeometry x="1534" y="224" width="50" height="290" as="geometry" />
        </mxCell>
        <mxCell id="66mWaM6eEmOpCAhljK_r-356" value="" style="rounded=0;whiteSpace=wrap;html=1;fillColor=none;dashed=1;dashPattern=1 2;" parent="1" vertex="1">
          <mxGeometry x="1295" y="224" width="50" height="290" as="geometry" />
        </mxCell>
        <mxCell id="66mWaM6eEmOpCAhljK_r-357" value="" style="rounded=0;whiteSpace=wrap;html=1;fillColor=none;dashed=1;dashPattern=1 2;" parent="1" vertex="1">
          <mxGeometry x="1164" y="186" width="560" height="350" as="geometry" />
        </mxCell>
        <mxCell id="66mWaM6eEmOpCAhljK_r-358" value="" style="rounded=0;whiteSpace=wrap;html=1;fillColor=none;dashed=1;dashPattern=1 2;" parent="1" vertex="1">
          <mxGeometry x="1284" y="206" width="310" height="320" as="geometry" />
        </mxCell>
        <mxCell id="66mWaM6eEmOpCAhljK_r-359" value="" style="rounded=0;whiteSpace=wrap;html=1;fillColor=none;dashed=1;dashPattern=1 2;" parent="1" vertex="1">
          <mxGeometry x="1643" y="224" width="70" height="290" as="geometry" />
        </mxCell>
        <mxCell id="66mWaM6eEmOpCAhljK_r-360" value="" style="rounded=0;whiteSpace=wrap;html=1;fillColor=none;dashed=1;dashPattern=1 2;" parent="1" vertex="1">
          <mxGeometry x="1175" y="224" width="70" height="290" as="geometry" />
        </mxCell>
        <mxCell id="66mWaM6eEmOpCAhljK_r-361" style="rounded=0;orthogonalLoop=1;jettySize=auto;html=1;exitX=1;exitY=0.5;exitDx=0;exitDy=0;entryX=0;entryY=0.5;entryDx=0;entryDy=0;" parent="1" source="66mWaM6eEmOpCAhljK_r-364" target="66mWaM6eEmOpCAhljK_r-365" edge="1">
          <mxGeometry relative="1" as="geometry" />
        </mxCell>
        <mxCell id="66mWaM6eEmOpCAhljK_r-363" style="edgeStyle=none;rounded=0;orthogonalLoop=1;jettySize=auto;html=1;exitX=1;exitY=1;exitDx=0;exitDy=0;entryX=0;entryY=0;entryDx=0;entryDy=0;" parent="1" source="66mWaM6eEmOpCAhljK_r-364" target="66mWaM6eEmOpCAhljK_r-376" edge="1">
          <mxGeometry relative="1" as="geometry" />
        </mxCell>
        <mxCell id="66mWaM6eEmOpCAhljK_r-364" value="v&lt;sub&gt;t2&lt;span style=&quot;font-size: 10px;&quot;&gt;→t1&lt;/span&gt;&lt;/sub&gt;" style="ellipse;whiteSpace=wrap;html=1;aspect=fixed;fillColor=none;dashed=1;" parent="1" vertex="1">
          <mxGeometry x="1185" y="344" width="50" height="50" as="geometry" />
        </mxCell>
        <mxCell id="66mWaM6eEmOpCAhljK_r-365" value="r&lt;sub&gt;i&lt;/sub&gt;" style="ellipse;whiteSpace=wrap;html=1;aspect=fixed;fillColor=none;" parent="1" vertex="1">
          <mxGeometry x="1295" y="316" width="50" height="50" as="geometry" />
        </mxCell>
        <mxCell id="66mWaM6eEmOpCAhljK_r-366" value="v&lt;sub&gt;t2&lt;span style=&quot;font-size: 10px;&quot;&gt;←t1&lt;/span&gt;&lt;/sub&gt;" style="ellipse;whiteSpace=wrap;html=1;aspect=fixed;fillColor=none;dashed=1;" parent="1" vertex="1">
          <mxGeometry x="1654" y="344" width="50" height="50" as="geometry" />
        </mxCell>
        <mxCell id="66mWaM6eEmOpCAhljK_r-367" value="" style="endArrow=classic;html=1;rounded=0;entryX=0;entryY=0.5;entryDx=0;entryDy=0;exitX=1;exitY=0.5;exitDx=0;exitDy=0;" parent="1" source="66mWaM6eEmOpCAhljK_r-369" target="66mWaM6eEmOpCAhljK_r-366" edge="1">
          <mxGeometry width="50" height="50" relative="1" as="geometry">
            <mxPoint x="1584" y="329" as="sourcePoint" />
            <mxPoint x="1564" y="324" as="targetPoint" />
          </mxGeometry>
        </mxCell>
        <mxCell id="66mWaM6eEmOpCAhljK_r-456" style="edgeStyle=none;rounded=0;orthogonalLoop=1;jettySize=auto;html=1;exitX=1;exitY=0;exitDx=0;exitDy=0;fontSize=36;startArrow=none;startFill=0;endArrow=classic;endFill=1;" parent="1" source="66mWaM6eEmOpCAhljK_r-369" target="66mWaM6eEmOpCAhljK_r-377" edge="1">
          <mxGeometry relative="1" as="geometry" />
        </mxCell>
        <mxCell id="66mWaM6eEmOpCAhljK_r-369" value="l&lt;sub&gt;k&lt;/sub&gt;" style="ellipse;whiteSpace=wrap;html=1;aspect=fixed;fillColor=none;" parent="1" vertex="1">
          <mxGeometry x="1534" y="316" width="50" height="50" as="geometry" />
        </mxCell>
        <mxCell id="66mWaM6eEmOpCAhljK_r-370" style="rounded=0;orthogonalLoop=1;jettySize=auto;html=1;exitX=1;exitY=0.5;exitDx=0;exitDy=0;entryX=0;entryY=0.5;entryDx=0;entryDy=0;" parent="1" source="66mWaM6eEmOpCAhljK_r-372" target="66mWaM6eEmOpCAhljK_r-373" edge="1">
          <mxGeometry relative="1" as="geometry" />
        </mxCell>
        <mxCell id="66mWaM6eEmOpCAhljK_r-372" value="&lt;span style=&quot;font-size: 12px;&quot;&gt;v&lt;/span&gt;&lt;sub&gt;t0&lt;span style=&quot;font-size: 10px;&quot;&gt;→t1&lt;/span&gt;&lt;/sub&gt;" style="ellipse;whiteSpace=wrap;html=1;aspect=fixed;fillColor=none;dashed=1;" parent="1" vertex="1">
          <mxGeometry x="1185" y="233" width="50" height="50" as="geometry" />
        </mxCell>
        <mxCell id="66mWaM6eEmOpCAhljK_r-373" value="r&lt;sub&gt;1&lt;/sub&gt;" style="ellipse;whiteSpace=wrap;html=1;aspect=fixed;fillColor=none;" parent="1" vertex="1">
          <mxGeometry x="1295" y="233" width="50" height="50" as="geometry" />
        </mxCell>
        <mxCell id="66mWaM6eEmOpCAhljK_r-375" value="v&lt;sub&gt;t3&lt;span style=&quot;font-size: 10px;&quot;&gt;→t1&lt;/span&gt;&lt;/sub&gt;" style="ellipse;whiteSpace=wrap;html=1;aspect=fixed;fillColor=none;dashed=1;" parent="1" vertex="1">
          <mxGeometry x="1185" y="455" width="50" height="50" as="geometry" />
        </mxCell>
        <mxCell id="66mWaM6eEmOpCAhljK_r-376" value="r&lt;span style=&quot;font-size: 10px;&quot;&gt;&lt;sub&gt;j&lt;/sub&gt;&lt;/span&gt;" style="ellipse;whiteSpace=wrap;html=1;aspect=fixed;fillColor=none;" parent="1" vertex="1">
          <mxGeometry x="1295" y="455" width="50" height="50" as="geometry" />
        </mxCell>
        <mxCell id="66mWaM6eEmOpCAhljK_r-377" value="v&lt;sub&gt;t0&lt;span style=&quot;font-size: 10px;&quot;&gt;←t1&lt;/span&gt;&lt;/sub&gt;" style="ellipse;whiteSpace=wrap;html=1;aspect=fixed;fillColor=none;dashed=1;" parent="1" vertex="1">
          <mxGeometry x="1654" y="233" width="50" height="50" as="geometry" />
        </mxCell>
        <mxCell id="66mWaM6eEmOpCAhljK_r-380" value="l&lt;sub&gt;1&lt;/sub&gt;" style="ellipse;whiteSpace=wrap;html=1;aspect=fixed;fillColor=none;" parent="1" vertex="1">
          <mxGeometry x="1534" y="233" width="50" height="50" as="geometry" />
        </mxCell>
        <mxCell id="66mWaM6eEmOpCAhljK_r-381" value="v&lt;sub&gt;t3&lt;span style=&quot;font-size: 10px;&quot;&gt;←t1&lt;/span&gt;&lt;/sub&gt;" style="ellipse;whiteSpace=wrap;html=1;aspect=fixed;fillColor=none;dashed=1;" parent="1" vertex="1">
          <mxGeometry x="1654" y="455" width="50" height="50" as="geometry" />
        </mxCell>
        <mxCell id="66mWaM6eEmOpCAhljK_r-383" style="edgeStyle=none;rounded=0;orthogonalLoop=1;jettySize=auto;html=1;exitX=1;exitY=0;exitDx=0;exitDy=0;entryX=0;entryY=1;entryDx=0;entryDy=0;" parent="1" source="66mWaM6eEmOpCAhljK_r-384" target="66mWaM6eEmOpCAhljK_r-366" edge="1">
          <mxGeometry relative="1" as="geometry" />
        </mxCell>
        <mxCell id="66mWaM6eEmOpCAhljK_r-384" value="l&lt;sub&gt;d&lt;/sub&gt;" style="ellipse;whiteSpace=wrap;html=1;aspect=fixed;fillColor=none;" parent="1" vertex="1">
          <mxGeometry x="1534" y="455" width="50" height="50" as="geometry" />
        </mxCell>
        <mxCell id="66mWaM6eEmOpCAhljK_r-385" value="V&lt;sub&gt;in&lt;/sub&gt;(t1)" style="text;html=1;align=center;verticalAlign=middle;resizable=0;points=[];autosize=1;strokeColor=none;fillColor=none;" parent="1" vertex="1">
          <mxGeometry x="1175" y="199" width="60" height="30" as="geometry" />
        </mxCell>
        <mxCell id="66mWaM6eEmOpCAhljK_r-386" value="V&lt;span style=&quot;font-size: 10px;&quot;&gt;&lt;sub&gt;out&lt;/sub&gt;&lt;/span&gt;(t1)" style="text;html=1;align=center;verticalAlign=middle;resizable=0;points=[];autosize=1;strokeColor=none;fillColor=none;" parent="1" vertex="1">
          <mxGeometry x="1643" y="199" width="60" height="30" as="geometry" />
        </mxCell>
        <mxCell id="66mWaM6eEmOpCAhljK_r-387" value="M(t1)" style="text;html=1;align=center;verticalAlign=middle;resizable=0;points=[];autosize=1;strokeColor=none;fillColor=none;rotation=0;" parent="1" vertex="1">
          <mxGeometry x="1410" y="181" width="50" height="30" as="geometry" />
        </mxCell>
        <mxCell id="66mWaM6eEmOpCAhljK_r-388" value="E&lt;sub&gt;in&lt;/sub&gt;(t1)" style="text;html=1;align=center;verticalAlign=middle;resizable=0;points=[];autosize=1;strokeColor=none;fillColor=none;" parent="1" vertex="1">
          <mxGeometry x="1235" y="209" width="60" height="30" as="geometry" />
        </mxCell>
        <mxCell id="66mWaM6eEmOpCAhljK_r-389" value="E&lt;sub&gt;out&lt;/sub&gt;(t1)" style="text;html=1;align=center;verticalAlign=middle;resizable=0;points=[];autosize=1;strokeColor=none;fillColor=none;" parent="1" vertex="1">
          <mxGeometry x="1587" y="209" width="60" height="30" as="geometry" />
        </mxCell>
        <mxCell id="66mWaM6eEmOpCAhljK_r-390" value="M&lt;sup&gt;*&lt;/sup&gt;(t1)" style="text;html=1;align=center;verticalAlign=middle;resizable=0;points=[];autosize=1;strokeColor=none;fillColor=none;" parent="1" vertex="1">
          <mxGeometry x="1405" y="156" width="60" height="30" as="geometry" />
        </mxCell>
        <mxCell id="66mWaM6eEmOpCAhljK_r-391" value="" style="rounded=0;whiteSpace=wrap;html=1;fillColor=none;dashed=1;dashPattern=1 2;" parent="1" vertex="1">
          <mxGeometry x="1255" y="234" width="20" height="260" as="geometry" />
        </mxCell>
        <mxCell id="66mWaM6eEmOpCAhljK_r-393" value="" style="ellipse;whiteSpace=wrap;html=1;aspect=fixed;fillColor=#000000;rotation=90;" parent="1" vertex="1">
          <mxGeometry x="1316" y="285" width="7" height="7" as="geometry" />
        </mxCell>
        <mxCell id="66mWaM6eEmOpCAhljK_r-394" value="" style="ellipse;whiteSpace=wrap;html=1;aspect=fixed;fillColor=#000000;rotation=90;" parent="1" vertex="1">
          <mxGeometry x="1316" y="296" width="7" height="7" as="geometry" />
        </mxCell>
        <mxCell id="66mWaM6eEmOpCAhljK_r-395" value="" style="ellipse;whiteSpace=wrap;html=1;aspect=fixed;fillColor=#000000;rotation=90;" parent="1" vertex="1">
          <mxGeometry x="1316" y="307" width="7" height="7" as="geometry" />
        </mxCell>
        <mxCell id="66mWaM6eEmOpCAhljK_r-396" value="r&lt;sub&gt;i+1&lt;/sub&gt;" style="ellipse;whiteSpace=wrap;html=1;aspect=fixed;fillColor=none;" parent="1" vertex="1">
          <mxGeometry x="1295" y="370" width="50" height="50" as="geometry" />
        </mxCell>
        <mxCell id="66mWaM6eEmOpCAhljK_r-397" value="" style="ellipse;whiteSpace=wrap;html=1;aspect=fixed;fillColor=#000000;rotation=90;" parent="1" vertex="1">
          <mxGeometry x="1316" y="423" width="7" height="7" as="geometry" />
        </mxCell>
        <mxCell id="66mWaM6eEmOpCAhljK_r-398" value="" style="ellipse;whiteSpace=wrap;html=1;aspect=fixed;fillColor=#000000;rotation=90;" parent="1" vertex="1">
          <mxGeometry x="1316" y="434" width="7" height="7" as="geometry" />
        </mxCell>
        <mxCell id="66mWaM6eEmOpCAhljK_r-399" value="" style="ellipse;whiteSpace=wrap;html=1;aspect=fixed;fillColor=#000000;rotation=90;" parent="1" vertex="1">
          <mxGeometry x="1316" y="445" width="7" height="7" as="geometry" />
        </mxCell>
        <mxCell id="66mWaM6eEmOpCAhljK_r-400" value="" style="ellipse;whiteSpace=wrap;html=1;aspect=fixed;fillColor=#000000;rotation=90;" parent="1" vertex="1">
          <mxGeometry x="1556" y="285" width="7" height="7" as="geometry" />
        </mxCell>
        <mxCell id="66mWaM6eEmOpCAhljK_r-401" value="" style="ellipse;whiteSpace=wrap;html=1;aspect=fixed;fillColor=#000000;rotation=90;" parent="1" vertex="1">
          <mxGeometry x="1556" y="296" width="7" height="7" as="geometry" />
        </mxCell>
        <mxCell id="66mWaM6eEmOpCAhljK_r-402" value="" style="ellipse;whiteSpace=wrap;html=1;aspect=fixed;fillColor=#000000;rotation=90;" parent="1" vertex="1">
          <mxGeometry x="1556" y="307" width="7" height="7" as="geometry" />
        </mxCell>
        <mxCell id="66mWaM6eEmOpCAhljK_r-403" value="" style="ellipse;whiteSpace=wrap;html=1;aspect=fixed;fillColor=#000000;rotation=90;" parent="1" vertex="1">
          <mxGeometry x="1556" y="423" width="7" height="7" as="geometry" />
        </mxCell>
        <mxCell id="66mWaM6eEmOpCAhljK_r-404" value="" style="ellipse;whiteSpace=wrap;html=1;aspect=fixed;fillColor=#000000;rotation=90;" parent="1" vertex="1">
          <mxGeometry x="1556" y="434" width="7" height="7" as="geometry" />
        </mxCell>
        <mxCell id="66mWaM6eEmOpCAhljK_r-405" value="" style="ellipse;whiteSpace=wrap;html=1;aspect=fixed;fillColor=#000000;rotation=90;" parent="1" vertex="1">
          <mxGeometry x="1556" y="445" width="7" height="7" as="geometry" />
        </mxCell>
        <mxCell id="66mWaM6eEmOpCAhljK_r-457" style="edgeStyle=none;rounded=0;orthogonalLoop=1;jettySize=auto;html=1;exitX=1;exitY=0.5;exitDx=0;exitDy=0;entryX=0.32;entryY=0.94;entryDx=0;entryDy=0;entryPerimeter=0;fontSize=36;startArrow=none;startFill=0;endArrow=classic;endFill=1;" parent="1" source="66mWaM6eEmOpCAhljK_r-406" target="66mWaM6eEmOpCAhljK_r-377" edge="1">
          <mxGeometry relative="1" as="geometry" />
        </mxCell>
        <mxCell id="66mWaM6eEmOpCAhljK_r-406" value="l&lt;sub&gt;k+1&lt;/sub&gt;" style="ellipse;whiteSpace=wrap;html=1;aspect=fixed;fillColor=none;" parent="1" vertex="1">
          <mxGeometry x="1534" y="369" width="50" height="50" as="geometry" />
        </mxCell>
        <mxCell id="66mWaM6eEmOpCAhljK_r-407" value="Receptors(t)" style="text;html=1;align=center;verticalAlign=middle;resizable=0;points=[];autosize=1;strokeColor=none;fillColor=none;" parent="1" vertex="1">
          <mxGeometry x="1283" y="200" width="90" height="30" as="geometry" />
        </mxCell>
        <mxCell id="66mWaM6eEmOpCAhljK_r-408" value="Ligands(t)" style="text;html=1;align=center;verticalAlign=middle;resizable=0;points=[];autosize=1;strokeColor=none;fillColor=none;" parent="1" vertex="1">
          <mxGeometry x="1514" y="199" width="80" height="30" as="geometry" />
        </mxCell>
        <mxCell id="66mWaM6eEmOpCAhljK_r-409" value="" style="group;dashed=1;dashPattern=1 2;fillColor=none;" parent="1" vertex="1" connectable="0">
          <mxGeometry x="1387" y="316" width="116" height="90" as="geometry" />
        </mxCell>
        <mxCell id="66mWaM6eEmOpCAhljK_r-410" style="edgeStyle=none;rounded=0;orthogonalLoop=1;jettySize=auto;html=1;exitX=0.65;exitY=1.017;exitDx=0;exitDy=0;endArrow=baseDash;endFill=0;exitPerimeter=0;" parent="66mWaM6eEmOpCAhljK_r-409" source="66mWaM6eEmOpCAhljK_r-422" edge="1">
          <mxGeometry relative="1" as="geometry">
            <mxPoint x="87" y="38" as="targetPoint" />
            <mxPoint x="76.70967741935482" y="38.06646525679757" as="sourcePoint" />
          </mxGeometry>
        </mxCell>
        <mxCell id="66mWaM6eEmOpCAhljK_r-411" value="" style="rounded=1;whiteSpace=wrap;html=1;dashed=1;dashPattern=1 2;fillColor=none;" parent="66mWaM6eEmOpCAhljK_r-409" vertex="1">
          <mxGeometry x="96.99838709677418" y="-12.002567975830821" width="22.451612903225808" height="16.314199395770398" as="geometry" />
        </mxCell>
        <mxCell id="66mWaM6eEmOpCAhljK_r-412" value="" style="rounded=1;whiteSpace=wrap;html=1;dashed=1;dashPattern=1 2;fillColor=none;" parent="66mWaM6eEmOpCAhljK_r-409" vertex="1">
          <mxGeometry x="55.00645161290322" y="66.66163141993957" width="22.451612903225808" height="16.314199395770398" as="geometry" />
        </mxCell>
        <mxCell id="66mWaM6eEmOpCAhljK_r-413" style="edgeStyle=none;rounded=0;orthogonalLoop=1;jettySize=auto;html=1;exitX=1;exitY=0.25;exitDx=0;exitDy=0;entryX=0.25;entryY=1;entryDx=0;entryDy=0;endArrow=classicThin;endFill=1;" parent="66mWaM6eEmOpCAhljK_r-409" source="66mWaM6eEmOpCAhljK_r-412" target="66mWaM6eEmOpCAhljK_r-411" edge="1">
          <mxGeometry relative="1" as="geometry">
            <mxPoint x="72.96774193548384" y="59.81873111782477" as="sourcePoint" />
            <mxPoint x="92.42580645161291" y="43.24350453172204" as="targetPoint" />
          </mxGeometry>
        </mxCell>
        <mxCell id="66mWaM6eEmOpCAhljK_r-414" value="" style="rounded=1;whiteSpace=wrap;html=1;dashed=1;dashPattern=1 2;fillColor=none;" parent="66mWaM6eEmOpCAhljK_r-409" vertex="1">
          <mxGeometry x="20.58064516129032" y="29.909365558912384" width="22.451612903225808" height="16.314199395770398" as="geometry" />
        </mxCell>
        <mxCell id="66mWaM6eEmOpCAhljK_r-415" style="rounded=0;orthogonalLoop=1;jettySize=auto;html=1;exitX=1;exitY=0.633;exitDx=0;exitDy=0;entryX=0;entryY=0;entryDx=0;entryDy=0;endArrow=baseDash;endFill=0;exitPerimeter=0;" parent="66mWaM6eEmOpCAhljK_r-409" source="66mWaM6eEmOpCAhljK_r-414" target="66mWaM6eEmOpCAhljK_r-412" edge="1">
          <mxGeometry relative="1" as="geometry">
            <mxPoint x="58" y="54.380664652567965" as="targetPoint" />
            <mxPoint x="42.71125074952516" y="40.31898613979332" as="sourcePoint" />
          </mxGeometry>
        </mxCell>
        <mxCell id="66mWaM6eEmOpCAhljK_r-416" style="rounded=0;orthogonalLoop=1;jettySize=auto;html=1;entryX=0;entryY=0;entryDx=0;entryDy=0;endArrow=baseDash;endFill=0;dashed=1;" parent="66mWaM6eEmOpCAhljK_r-409" target="66mWaM6eEmOpCAhljK_r-422" edge="1">
          <mxGeometry relative="1" as="geometry">
            <mxPoint x="56.87741935483871" y="54.380664652567965" as="targetPoint" />
            <mxPoint x="17" y="-32" as="sourcePoint" />
          </mxGeometry>
        </mxCell>
        <mxCell id="66mWaM6eEmOpCAhljK_r-417" style="rounded=0;orthogonalLoop=1;jettySize=auto;html=1;entryX=0;entryY=0;entryDx=0;entryDy=0;endArrow=baseDash;endFill=0;dashed=1;" parent="66mWaM6eEmOpCAhljK_r-409" target="66mWaM6eEmOpCAhljK_r-414" edge="1">
          <mxGeometry relative="1" as="geometry">
            <mxPoint x="63.61290322580645" y="24.471299093655578" as="targetPoint" />
            <mxPoint x="7.483870967741933" y="13.595166163141991" as="sourcePoint" />
          </mxGeometry>
        </mxCell>
        <mxCell id="66mWaM6eEmOpCAhljK_r-418" style="rounded=0;orthogonalLoop=1;jettySize=auto;html=1;endArrow=baseDash;endFill=0;dashed=1;entryX=-0.033;entryY=0.9;entryDx=0;entryDy=0;entryPerimeter=0;" parent="66mWaM6eEmOpCAhljK_r-409" target="66mWaM6eEmOpCAhljK_r-439" edge="1">
          <mxGeometry relative="1" as="geometry">
            <mxPoint x="14.967741935483867" y="84.29003021148034" as="targetPoint" />
            <mxPoint x="-3" y="128" as="sourcePoint" />
          </mxGeometry>
        </mxCell>
        <mxCell id="66mWaM6eEmOpCAhljK_r-419" style="edgeStyle=none;rounded=0;orthogonalLoop=1;jettySize=auto;html=1;exitX=1;exitY=0.5;exitDx=0;exitDy=0;entryX=0;entryY=1;entryDx=0;entryDy=0;endArrow=classicThin;endFill=1;dashed=1;" parent="66mWaM6eEmOpCAhljK_r-409" edge="1">
          <mxGeometry relative="1" as="geometry">
            <mxPoint x="4.864516129032258" y="59.81873111782477" as="sourcePoint" />
            <mxPoint x="20.58064516129032" y="46.223564954682786" as="targetPoint" />
          </mxGeometry>
        </mxCell>
        <mxCell id="66mWaM6eEmOpCAhljK_r-420" style="edgeStyle=none;rounded=0;orthogonalLoop=1;jettySize=auto;html=1;entryX=0;entryY=0;entryDx=0;entryDy=0;endArrow=classicThin;endFill=1;dashed=1;" parent="66mWaM6eEmOpCAhljK_r-409" target="66mWaM6eEmOpCAhljK_r-439" edge="1">
          <mxGeometry relative="1" as="geometry">
            <mxPoint x="-3" y="98" as="sourcePoint" />
            <mxPoint x="16.838709677419352" y="74.77341389728095" as="targetPoint" />
          </mxGeometry>
        </mxCell>
        <mxCell id="66mWaM6eEmOpCAhljK_r-421" style="edgeStyle=none;rounded=0;orthogonalLoop=1;jettySize=auto;html=1;entryX=0.45;entryY=-0.017;entryDx=0;entryDy=0;endArrow=classicThin;endFill=1;dashed=1;entryPerimeter=0;" parent="66mWaM6eEmOpCAhljK_r-409" target="66mWaM6eEmOpCAhljK_r-422" edge="1">
          <mxGeometry relative="1" as="geometry">
            <mxPoint x="37" y="-42" as="sourcePoint" />
            <mxPoint x="18.709677419354836" y="77.49244712990935" as="targetPoint" />
          </mxGeometry>
        </mxCell>
        <mxCell id="66mWaM6eEmOpCAhljK_r-422" value="" style="rounded=1;whiteSpace=wrap;html=1;dashed=1;dashPattern=1 2;fillColor=none;" parent="66mWaM6eEmOpCAhljK_r-409" vertex="1">
          <mxGeometry x="32.55193548387092" y="-1.9977341389728167" width="22.451612903225808" height="16.314199395770398" as="geometry" />
        </mxCell>
        <mxCell id="66mWaM6eEmOpCAhljK_r-423" style="edgeStyle=none;rounded=0;orthogonalLoop=1;jettySize=auto;html=1;endArrow=baseDash;endFill=0;dashed=1;exitX=1;exitY=0.5;exitDx=0;exitDy=0;" parent="1" source="66mWaM6eEmOpCAhljK_r-373" edge="1">
          <mxGeometry relative="1" as="geometry">
            <mxPoint x="1375" y="264" as="targetPoint" />
            <mxPoint x="1355" y="264" as="sourcePoint" />
          </mxGeometry>
        </mxCell>
        <mxCell id="66mWaM6eEmOpCAhljK_r-424" style="edgeStyle=none;rounded=0;orthogonalLoop=1;jettySize=auto;html=1;exitX=0.983;exitY=0.373;exitDx=0;exitDy=0;dashed=1;endArrow=classicThin;endFill=1;exitPerimeter=0;" parent="1" source="66mWaM6eEmOpCAhljK_r-373" edge="1">
          <mxGeometry relative="1" as="geometry">
            <mxPoint x="1380" y="240.99999999999955" as="targetPoint" />
            <mxPoint x="1348" y="251.4224999999999" as="sourcePoint" />
          </mxGeometry>
        </mxCell>
        <mxCell id="66mWaM6eEmOpCAhljK_r-425" style="edgeStyle=none;rounded=0;orthogonalLoop=1;jettySize=auto;html=1;endArrow=baseDash;endFill=0;dashed=1;exitX=1;exitY=0.5;exitDx=0;exitDy=0;" parent="1" edge="1">
          <mxGeometry relative="1" as="geometry">
            <mxPoint x="1375" y="347" as="targetPoint" />
            <mxPoint x="1345.0000000000018" y="340.99999999999955" as="sourcePoint" />
          </mxGeometry>
        </mxCell>
        <mxCell id="66mWaM6eEmOpCAhljK_r-426" style="edgeStyle=none;rounded=0;orthogonalLoop=1;jettySize=auto;html=1;exitX=0.983;exitY=0.373;exitDx=0;exitDy=0;dashed=1;endArrow=classicThin;endFill=1;exitPerimeter=0;" parent="1" edge="1">
          <mxGeometry relative="1" as="geometry">
            <mxPoint x="1380" y="324" as="targetPoint" />
            <mxPoint x="1344.1499999999996" y="334.65000000000055" as="sourcePoint" />
          </mxGeometry>
        </mxCell>
        <mxCell id="66mWaM6eEmOpCAhljK_r-427" style="edgeStyle=none;rounded=0;orthogonalLoop=1;jettySize=auto;html=1;endArrow=baseDash;endFill=0;dashed=1;exitX=1;exitY=0.5;exitDx=0;exitDy=0;" parent="1" edge="1">
          <mxGeometry relative="1" as="geometry">
            <mxPoint x="1376" y="402" as="targetPoint" />
            <mxPoint x="1346.0000000000018" y="395.99999999999955" as="sourcePoint" />
          </mxGeometry>
        </mxCell>
        <mxCell id="66mWaM6eEmOpCAhljK_r-428" style="edgeStyle=none;rounded=0;orthogonalLoop=1;jettySize=auto;html=1;exitX=0.983;exitY=0.373;exitDx=0;exitDy=0;dashed=1;endArrow=classicThin;endFill=1;exitPerimeter=0;" parent="1" edge="1">
          <mxGeometry relative="1" as="geometry">
            <mxPoint x="1381" y="379" as="targetPoint" />
            <mxPoint x="1345.1499999999996" y="389.65000000000055" as="sourcePoint" />
          </mxGeometry>
        </mxCell>
        <mxCell id="66mWaM6eEmOpCAhljK_r-429" style="edgeStyle=none;rounded=0;orthogonalLoop=1;jettySize=auto;html=1;endArrow=baseDash;endFill=0;dashed=1;exitX=1;exitY=0.5;exitDx=0;exitDy=0;" parent="1" edge="1">
          <mxGeometry relative="1" as="geometry">
            <mxPoint x="1376" y="487" as="targetPoint" />
            <mxPoint x="1346.0000000000018" y="480.99999999999955" as="sourcePoint" />
          </mxGeometry>
        </mxCell>
        <mxCell id="66mWaM6eEmOpCAhljK_r-430" style="edgeStyle=none;rounded=0;orthogonalLoop=1;jettySize=auto;html=1;exitX=0.983;exitY=0.373;exitDx=0;exitDy=0;dashed=1;endArrow=classicThin;endFill=1;exitPerimeter=0;" parent="1" edge="1">
          <mxGeometry relative="1" as="geometry">
            <mxPoint x="1381" y="464" as="targetPoint" />
            <mxPoint x="1345.1499999999996" y="474.65000000000055" as="sourcePoint" />
          </mxGeometry>
        </mxCell>
        <mxCell id="66mWaM6eEmOpCAhljK_r-431" style="edgeStyle=none;rounded=0;orthogonalLoop=1;jettySize=auto;html=1;endArrow=baseDash;endFill=0;dashed=1;entryX=-0.021;entryY=0.63;entryDx=0;entryDy=0;entryPerimeter=0;" parent="1" target="66mWaM6eEmOpCAhljK_r-406" edge="1">
          <mxGeometry relative="1" as="geometry">
            <mxPoint x="1536" y="407" as="targetPoint" />
            <mxPoint x="1508" y="409" as="sourcePoint" />
          </mxGeometry>
        </mxCell>
        <mxCell id="66mWaM6eEmOpCAhljK_r-432" style="edgeStyle=none;rounded=0;orthogonalLoop=1;jettySize=auto;html=1;dashed=1;endArrow=classicThin;endFill=1;entryX=0;entryY=0.5;entryDx=0;entryDy=0;" parent="1" target="66mWaM6eEmOpCAhljK_r-406" edge="1">
          <mxGeometry relative="1" as="geometry">
            <mxPoint x="1541" y="384" as="targetPoint" />
            <mxPoint x="1508" y="384" as="sourcePoint" />
          </mxGeometry>
        </mxCell>
        <mxCell id="66mWaM6eEmOpCAhljK_r-433" style="edgeStyle=none;rounded=0;orthogonalLoop=1;jettySize=auto;html=1;endArrow=baseDash;endFill=0;dashed=1;entryX=-0.021;entryY=0.63;entryDx=0;entryDy=0;entryPerimeter=0;" parent="1" edge="1">
          <mxGeometry relative="1" as="geometry">
            <mxPoint x="1532.9499999999998" y="346.5" as="targetPoint" />
            <mxPoint x="1508" y="354.9999999999991" as="sourcePoint" />
          </mxGeometry>
        </mxCell>
        <mxCell id="66mWaM6eEmOpCAhljK_r-434" style="edgeStyle=none;rounded=0;orthogonalLoop=1;jettySize=auto;html=1;dashed=1;endArrow=classicThin;endFill=1;entryX=0;entryY=0.5;entryDx=0;entryDy=0;" parent="1" edge="1">
          <mxGeometry relative="1" as="geometry">
            <mxPoint x="1533.9999999999982" y="339.9999999999991" as="targetPoint" />
            <mxPoint x="1508" y="329.9999999999991" as="sourcePoint" />
          </mxGeometry>
        </mxCell>
        <mxCell id="66mWaM6eEmOpCAhljK_r-435" style="edgeStyle=none;rounded=0;orthogonalLoop=1;jettySize=auto;html=1;endArrow=baseDash;endFill=0;dashed=1;entryX=-0.021;entryY=0.63;entryDx=0;entryDy=0;entryPerimeter=0;" parent="1" edge="1">
          <mxGeometry relative="1" as="geometry">
            <mxPoint x="1532.9499999999998" y="487.4999999999991" as="targetPoint" />
            <mxPoint x="1508" y="495.99999999999955" as="sourcePoint" />
          </mxGeometry>
        </mxCell>
        <mxCell id="66mWaM6eEmOpCAhljK_r-436" style="edgeStyle=none;rounded=0;orthogonalLoop=1;jettySize=auto;html=1;dashed=1;endArrow=classicThin;endFill=1;entryX=0;entryY=0.5;entryDx=0;entryDy=0;" parent="1" edge="1">
          <mxGeometry relative="1" as="geometry">
            <mxPoint x="1533.9999999999982" y="480.99999999999955" as="targetPoint" />
            <mxPoint x="1508" y="470.99999999999955" as="sourcePoint" />
          </mxGeometry>
        </mxCell>
        <mxCell id="66mWaM6eEmOpCAhljK_r-437" style="edgeStyle=none;rounded=0;orthogonalLoop=1;jettySize=auto;html=1;endArrow=baseDash;endFill=0;dashed=1;entryX=-0.021;entryY=0.63;entryDx=0;entryDy=0;entryPerimeter=0;" parent="1" edge="1">
          <mxGeometry relative="1" as="geometry">
            <mxPoint x="1532.9499999999998" y="263.49999999999955" as="targetPoint" />
            <mxPoint x="1508" y="272" as="sourcePoint" />
          </mxGeometry>
        </mxCell>
        <mxCell id="66mWaM6eEmOpCAhljK_r-438" style="edgeStyle=none;rounded=0;orthogonalLoop=1;jettySize=auto;html=1;dashed=1;endArrow=classicThin;endFill=1;entryX=0;entryY=0.5;entryDx=0;entryDy=0;" parent="1" edge="1">
          <mxGeometry relative="1" as="geometry">
            <mxPoint x="1533.9999999999982" y="257" as="targetPoint" />
            <mxPoint x="1508" y="247" as="sourcePoint" />
          </mxGeometry>
        </mxCell>
        <mxCell id="66mWaM6eEmOpCAhljK_r-439" value="" style="rounded=1;whiteSpace=wrap;html=1;dashed=1;dashPattern=1 2;fillColor=none;" parent="1" vertex="1">
          <mxGeometry x="1403.8387096774193" y="423.99580060422954" width="22.451612903225808" height="16.314199395770398" as="geometry" />
        </mxCell>
        <mxCell id="66mWaM6eEmOpCAhljK_r-440" style="edgeStyle=none;rounded=0;orthogonalLoop=1;jettySize=auto;html=1;exitX=1;exitY=0.5;exitDx=0;exitDy=0;entryX=0;entryY=1;entryDx=0;entryDy=0;endArrow=classicThin;endFill=1;" parent="1" source="66mWaM6eEmOpCAhljK_r-439" target="66mWaM6eEmOpCAhljK_r-412" edge="1">
          <mxGeometry relative="1" as="geometry">
            <mxPoint x="1425.9693152656541" y="398.0375093284847" as="sourcePoint" />
            <mxPoint x="1447.1919750569264" y="383.5093184660773" as="targetPoint" />
          </mxGeometry>
        </mxCell>
        <mxCell id="66mWaM6eEmOpCAhljK_r-441" value="&lt;font style=&quot;font-size: 36px;&quot;&gt;t1&lt;/font&gt;" style="text;html=1;align=center;verticalAlign=middle;resizable=0;points=[];autosize=1;strokeColor=none;fillColor=none;" parent="1" vertex="1">
          <mxGeometry x="1421" y="36" width="50" height="60" as="geometry" />
        </mxCell>
        <mxCell id="66mWaM6eEmOpCAhljK_r-453" style="edgeStyle=none;rounded=0;orthogonalLoop=1;jettySize=auto;html=1;exitX=0.002;exitY=0.533;exitDx=0;exitDy=0;entryX=0.998;entryY=0.532;entryDx=0;entryDy=0;fontSize=36;entryPerimeter=0;exitPerimeter=0;startArrow=classic;startFill=1;endArrow=none;endFill=0;" parent="1" source="66mWaM6eEmOpCAhljK_r-90" target="Lb5HWGm_DYKcfEpjaOFK-197" edge="1">
          <mxGeometry relative="1" as="geometry">
            <mxPoint x="1804.9999999999995" y="939.5" as="sourcePoint" />
            <mxPoint x="1081" y="940" as="targetPoint" />
          </mxGeometry>
        </mxCell>
        <mxCell id="uFlWnr4Ail2nAyp_0bdZ-1" value="v&lt;sup&gt;n+1&lt;/sup&gt;&lt;span style=&quot;border-color: var(--border-color);&quot;&gt;&lt;sub&gt;t0&lt;/sub&gt;&lt;span style=&quot;border-color: var(--border-color);&quot;&gt;&lt;sub&gt;→t1&amp;nbsp;&lt;/sub&gt;&lt;/span&gt;&lt;/span&gt;=v&lt;sup&gt;n&lt;/sup&gt;&lt;sub style=&quot;border-color: var(--border-color);&quot;&gt;t1&lt;span style=&quot;border-color: var(--border-color);&quot;&gt;←t0&lt;/span&gt;&lt;/sub&gt;" style="text;html=1;align=center;verticalAlign=middle;resizable=0;points=[];autosize=1;strokeColor=none;fillColor=none;rotation=-35;" vertex="1" parent="1">
          <mxGeometry x="996" y="587" width="120" height="30" as="geometry" />
        </mxCell>
      </root>
    </mxGraphModel>
  </diagram>
</mxfile>
